<?xml version="1.0" encoding="UTF-8"?><svg xmlns="http://www.w3.org/2000/svg" xmlns:xlink="http://www.w3.org/1999/xlink" width="337.5pt" zoomAndPan="magnify" viewBox="0 0 337.5 187.499995" height="187.499995pt" preserveAspectRatio="xMidYMid meet" version="1.2"><defs><g/></defs><g xml:id="surface1" id="surface1"><g style="fill:rgb(100%,56.858826%,30.198669%);fill-opacity:1;"><g transform="translate(58.002242, 113.790562)"><path style="stroke:none;" d="M 18.484375 -10.671875 C 12.550781 -9.316406 7.972656 -4.816406 8.511719 -14.089844 C 8.523438 -16.125 8.777344 -18.21875 8.8125 -20.171875 L 8.839844 -33.980469 C 8.816406 -36.511719 8.898438 -45.929688 8.65625 -48.324219 C 8.621094 -49.164062 8.507812 -49.980469 8.171875 -50.664062 C 7.582031 -52.042969 6.589844 -52.648438 5.03125 -52.4375 C 4.152344 -52.226562 2.996094 -49.320312 2.117188 -49.105469 C 1.398438 -48.929688 1.277344 -48.730469 0.992188 -47.816406 L 0.46875 -44.386719 C 0.0429688 -39.882812 -0.0351562 -31.144531 -0.464844 -26.636719 C -0.660156 -24.304688 -1.066406 -16.925781 -1.179688 -14.613281 C -1.378906 -11.601562 -1.339844 -8.648438 -1.480469 -5.734375 C -1.476562 0.191406 -1.839844 0.445312 -3.1875 2.214844 C -3.808594 2.449219 -3.910156 3.066406 -3.734375 3.445312 C -3.476562 3.808594 -3.5 4.40625 -3.464844 4.90625 C -3.265625 5.367188 -3.230469 5.863281 -3.132812 6.265625 C -2.917969 6.804688 -2.5625 7.226562 -2.363281 7.6875 C -2.109375 8.046875 -1.929688 8.425781 -1.550781 8.589844 C -0.976562 8.871094 -0.238281 9.117188 0.316406 9.320312 C 0.417969 9.378906 0.496094 9.359375 0.578125 9.339844 C 1.398438 8.886719 2.21875 8.433594 2.941406 7.917969 C 3.722656 7.304688 4.40625 6.632812 5.167969 5.9375 C 6.253906 4.828125 4.328125 6.3125 5.511719 5.261719 C 6.796875 3.933594 8.164062 2.585938 9.191406 0.898438 C 9.292969 0.621094 9.574219 0.382812 9.773438 0.164062 C 10.257812 -0.292969 10.917969 -0.707031 11.398438 -1.164062 C 12.824219 -2.269531 14.1875 -3.277344 15.589844 -4.46875 C 16.914062 -5.636719 18.238281 -6.464844 19.71875 -6.992188 C 20.277344 -7.128906 20.816406 -7.34375 21.457031 -7.839844 C 22.320312 -8.472656 23.160156 -8.847656 24.058594 -8.980469 C 24.140625 -9 24.359375 -9.136719 24.339844 -9.21875 C 24.726562 -10.074219 25.265625 -10.289062 25.824219 -10.425781 C 25.984375 -10.464844 26.046875 -10.5625 26.265625 -10.703125 C 26.066406 -10.824219 25.929688 -11.042969 25.769531 -11.003906 C 24.792969 -11.191406 23.796875 -11.457031 22.621094 -11.421875 C 21.300781 -11.273438 19.921875 -11.023438 18.484375 -10.671875 Z M 18.484375 -10.671875 "/></g></g><g style="fill:rgb(100%,56.858826%,30.198669%);fill-opacity:1;"><g transform="translate(83.977594, 107.476825)"><path style="stroke:none;" d="M -1.113281 -43.242188 C -1.054688 -43.339844 -2.78125 -41.734375 -2.78125 -41.734375 C -2.601562 -41.695312 -2.433594 -39.957031 -2.273438 -39.996094 C 1.835938 -39.808594 3.308594 -42.113281 3.171875 -36.410156 C 3.140625 -34.792969 3.203125 -35.234375 3.191406 -33.535156 C 3.144531 -32.679688 3.421875 -31.898438 3.453125 -31.0625 C 3.46875 -30.304688 3.707031 -29.683594 3.558594 -28.886719 C 3.273438 -27.628906 3.347656 -26.632812 3.296875 -25.4375 C 3.308594 -24 3.339844 -22.484375 2.667969 -20.710938 C 2.488281 -20.414062 2.484375 -20.074219 2.363281 -19.875 C 2.09375 -17.863281 2.0625 -16.246094 2.148438 -14.492188 C 2.0625 -13.113281 1.992188 -11.660156 1.84375 -10.183594 L 1.519531 -9.425781 C 1.117188 -8.992188 0.773438 -8.652344 0.335938 -8.378906 C -0.628906 -7.804688 -1.527344 -7.332031 -2.46875 -6.679688 C -3.414062 -6.027344 -4.414062 -5.277344 -5.316406 -4.464844 C -5.539062 -4.324219 -5.78125 -3.929688 -5.863281 -3.570312 L -6.734375 -1.242188 C -7.183594 0.390625 -7.03125 1.03125 -5.792969 1.238281 C -5.335938 1.382812 -4.976562 1.464844 -4.417969 1.328125 C -2.699219 0.742188 -1.019531 0.332031 0.519531 -0.296875 C 2.460938 -1.019531 4.523438 -1.945312 6.523438 -2.769531 L 11.460938 -4.734375 C 12.464844 -5.144531 13.203125 -5.242188 13.71875 -4.859375 C 14.054688 -4.515625 14.554688 -4.894531 15.136719 -5.289062 C 15.558594 -5.644531 15.742188 -5.941406 15.484375 -6.304688 C 15.1875 -6.824219 15.273438 -7.519531 15.71875 -8.476562 C 15.820312 -8.753906 15.78125 -9.253906 15.863281 -9.613281 C 15.910156 -10.46875 16.15625 -11.546875 15.742188 -12.207031 C 15.621094 -12.347656 15.683594 -12.785156 15.765625 -13.144531 C 15.007812 -12.789062 15.089844 -13.488281 14.957031 -14.046875 C 14.136719 -13.933594 13.058594 -13.839844 12.039062 -13.507812 C 7.777344 -11.539062 9.332031 -17.675781 9.652344 -20.546875 L 10.109375 -26.328125 C 10.175781 -27.445312 10.023438 -28.425781 10.027344 -29.441406 L 10.109375 -38.859375 C 10.160156 -40.734375 10.300781 -40.851562 10.292969 -42.628906 C 10.710938 -45.4375 14.726562 -45.992188 16.910156 -47.453125 C 16.933594 -48.050781 16.945312 -49.746094 16.507812 -49.808594 C 16.046875 -49.953125 15.910156 -50.511719 15.875 -51.011719 C 15.785156 -52.765625 14.753906 -53.53125 13.238281 -53.503906 C 12.023438 -53.628906 10.523438 -53.179688 9.101562 -52.410156 C 6.777344 -51.171875 4.597656 -50.046875 2.394531 -48.664062 C 1.273438 -48.054688 -0.0078125 -47.742188 -1.09375 -46.292969 C -1.039062 -45.714844 -1.222656 -45.078125 -1.824219 -44.421875 C -1.945312 -44.222656 -1.96875 -43.964844 -2.167969 -43.746094 C -2.351562 -43.109375 -0.789062 -43.996094 -1.113281 -43.242188 Z M -2.511719 -0.234375 C -2.25 -0.890625 -1.789062 -1.089844 -1.410156 -1.265625 C 0.152344 -1.816406 1.992188 -2.601562 3.792969 -3.207031 C 4.472656 -3.542969 5.09375 -3.777344 5.792969 -4.371094 C 5.996094 -4.589844 6.15625 -4.628906 6.375 -4.765625 C 7.375 -5.179688 8.316406 -5.492188 9.214844 -5.964844 C 9.675781 -6.160156 10.039062 -6.417969 10.472656 -6.015625 L 8.375 -5.253906 C 8.734375 -5.171875 9.171875 -5.445312 9.574219 -5.542969 C 10.03125 -5.738281 10.492188 -5.9375 10.914062 -5.953125 C 11.3125 -6.050781 11.730469 -6.066406 12.289062 -6.203125 C 11.566406 -5.351562 11.207031 -5.433594 10.546875 -5.019531 C 9.925781 -4.785156 9.347656 -4.726562 8.765625 -4.332031 C 8.066406 -3.738281 7.285156 -3.464844 6.625 -3.050781 C 5.863281 -2.695312 5.003906 -2.402344 4.222656 -2.128906 L 0.105469 -0.617188 C -0.695312 -0.421875 -1.433594 -0.328125 -2.234375 -0.132812 Z M 10.496094 -45.976562 C 9.957031 -45.761719 9.816406 -45.984375 9.960938 -46.441406 C 10.964844 -47.53125 11.582031 -47.089844 12.578125 -47.160156 Z M 0.894531 -42.289062 C 0.957031 -42.390625 0.957031 -42.390625 0.9375 -42.46875 C 1.078125 -42.589844 1.234375 -42.628906 1.394531 -42.667969 C 1.535156 -42.785156 1.617188 -42.804688 1.777344 -42.84375 L 1.816406 -42.683594 Z M 0.894531 -42.289062 "/></g></g><g style="fill:rgb(100%,56.858826%,30.198669%);fill-opacity:1;"><g transform="translate(111.711281, 100.735696)"><path style="stroke:none;" d="M 21.320312 -47.425781 C 22.042969 -48.277344 23.121094 -48.371094 24.039062 -48.761719 C 24.742188 -49.019531 25.460938 -49.191406 26.042969 -49.585938 C 27.144531 -50.277344 28.183594 -50.53125 29.320312 -50.722656 C 29.320312 -50.722656 29.417969 -50.664062 29.4375 -50.582031 C 29.28125 -50.542969 29.058594 -50.40625 28.898438 -50.367188 C 28.996094 -49.96875 29.011719 -49.546875 29.492188 -49.664062 C 29.273438 -49.867188 29.214844 -50.105469 29.597656 -50.28125 L 31.058594 -50.890625 L 29.492188 -49.664062 C 30.410156 -49.71875 31.035156 -50.292969 31.617188 -51.027344 C 31.878906 -51.34375 32.21875 -51.683594 32.796875 -51.738281 C 33.636719 -51.773438 33.757812 -51.972656 33.703125 -52.890625 L 32.984375 -52.714844 L 34.351562 -54.0625 C 34.074219 -54.503906 33.972656 -54.5625 34.175781 -55.121094 C 34.359375 -55.757812 34.304688 -56.335938 33.867188 -56.738281 C 33.550781 -57 33.335938 -57.539062 32.757812 -57.484375 C 32.597656 -57.445312 32.476562 -57.585938 32.359375 -57.726562 L 31.742188 -58.167969 C 31.542969 -58.289062 30.582031 -57.71875 30.5625 -57.457031 C 30.761719 -57.335938 30.878906 -57.199219 30.996094 -57.058594 C 30.734375 -56.398438 30.292969 -56.125 29.734375 -55.988281 C 28.375 -55.65625 27.117188 -55.265625 25.777344 -54.855469 C 24.757812 -54.523438 23.71875 -54.269531 22.679688 -54.019531 C 22.359375 -53.941406 22 -54.023438 21.660156 -54.027344 C 21.121094 -53.808594 20.539062 -53.414062 20.140625 -53.316406 C 18.800781 -52.90625 17.421875 -52.316406 16.0625 -52.328125 C 15.464844 -52.351562 14.785156 -52.015625 14.144531 -51.859375 L 6.25 -49.515625 C 6.089844 -49.480469 5.75 -49.480469 5.652344 -49.542969 C 5.53125 -49.683594 5.632812 -49.960938 5.636719 -50.300781 C 5.152344 -49.84375 4.917969 -50.125 4.636719 -50.226562 C 4.257812 -50.386719 3.820312 -50.449219 3.417969 -50.015625 L 3.554688 -49.457031 C 3.75 -48.65625 3.628906 -48.457031 2.75 -48.242188 C 1.710938 -47.992188 0.730469 -47.835938 -0.246094 -47.683594 C -0.648438 -47.585938 -1.164062 -47.628906 -1.84375 -47.636719 C -1.484375 -47.890625 -1.363281 -48.089844 -1.203125 -48.128906 L 1.15625 -48.871094 C 1.558594 -48.96875 2.035156 -49.085938 2.417969 -49.261719 C 2.4375 -49.523438 2.398438 -49.683594 2.378906 -49.761719 L -2.8125 -48.839844 C -3.613281 -48.644531 -4.210938 -48.667969 -4.746094 -49.128906 C -4.765625 -49.210938 -4.847656 -49.191406 -4.925781 -49.171875 C -5.304688 -48.996094 -5.667969 -48.738281 -5.550781 -48.257812 C -5.417969 -47.019531 -5.667969 -45.605469 -4.996094 -44.582031 C -4.875 -44.441406 -4.839844 -44.28125 -4.898438 -44.183594 C -4.902344 -43.503906 -4.464844 -43.101562 -4.128906 -42.761719 L -3.535156 -42.058594 C -3.179688 -41.636719 -2.824219 -41.21875 -2.40625 -40.894531 C -2.089844 -40.632812 -1.652344 -40.230469 -1.234375 -40.25 C 3.613281 -39.820312 1.882812 -37.535156 0.902344 -31.457031 C 0.882812 -31.199219 0.78125 -30.917969 0.597656 -30.621094 C 0.292969 -29.785156 -0.183594 -29.667969 -0.800781 -30.113281 C -1.640625 -29.738281 -2.421875 -29.464844 -3.28125 -29.167969 C -4.519531 -28.699219 -4.601562 -28.679688 -5.253906 -29.621094 C -5.410156 -29.921875 -5.707031 -30.105469 -5.945312 -30.382812 L -6.269531 -29.96875 C -6.289062 -29.707031 -6.390625 -29.429688 -6.492188 -29.152344 C -6.800781 -27.636719 -6.960938 -27.597656 -8.136719 -28.242188 L -8.292969 -28.207031 C -8.335938 -28.027344 -8.515625 -27.726562 -8.539062 -27.46875 C -8.566406 -26.191406 -8.355469 -24.972656 -7.683594 -23.953125 C -7.527344 -23.652344 -7.308594 -23.449219 -7.449219 -22.992188 C -7.472656 -22.734375 -7.394531 -22.414062 -7.074219 -22.492188 C -6.65625 -22.507812 -6.519531 -22.289062 -6.300781 -22.085938 C -6.160156 -21.867188 -5.761719 -21.964844 -5.5625 -21.84375 C -5.382812 -21.800781 -5.34375 -21.640625 -5.324219 -21.5625 C -4.910156 -20.902344 -4.578125 -20.21875 -4.242188 -19.539062 C -3.515625 -17.601562 -3.261719 -10.636719 -3.078125 -8.480469 C -3 -7.820312 -3.023438 -7.222656 -3.050781 -6.625 C -3.03125 -6.203125 -3.195312 -5.828125 -3.175781 -5.40625 L -3.0625 -1.796875 C -3.085938 -1.199219 -3.046875 -0.699219 -3.171875 -0.160156 C -3.457031 1.09375 -3.066406 2.015625 -2.03125 2.441406 C -1.652344 2.601562 -1.132812 2.644531 -0.695312 2.707031 L 0.976562 2.980469 L 2.554688 3.1875 C 3.292969 3.09375 3.871094 3.039062 4.613281 2.605469 C 5.351562 2.167969 6.113281 1.816406 6.953125 1.441406 C 6.976562 1.183594 6.996094 0.921875 6.9375 0.683594 C 6.890625 -0.914062 6.839844 -2.507812 6.871094 -4.125 C 6.835938 -4.964844 6.941406 -5.921875 7.066406 -6.796875 C 7.542969 -9.367188 8.25 -16.90625 8.726562 -19.476562 C 9.851562 -26.691406 8.765625 -25.578125 14.65625 -29.550781 L 17.222656 -31.191406 L 17.824219 -31.507812 C 18.804688 -32 19.902344 -32.351562 20.765625 -32.984375 C 22.148438 -33.910156 23.488281 -34.660156 24.929688 -35.351562 C 25.210938 -35.585938 25.53125 -35.664062 25.671875 -36.125 C 25.835938 -36.5 26.175781 -36.839844 26.4375 -37.15625 C 27.121094 -37.828125 28.082031 -38.402344 28.070312 -39.5 C 28.050781 -39.578125 28.109375 -39.679688 28.171875 -39.777344 C 28.53125 -40.035156 28.375 -40.335938 28.296875 -40.65625 C 26.660156 -40.765625 22.386719 -39.894531 20.683594 -38.890625 L 24.359375 -39.78125 C 22.441406 -38.976562 20.484375 -38.671875 18.582031 -37.785156 C 18.421875 -37.746094 18.304688 -37.886719 17.964844 -37.890625 L 19.746094 -38.574219 C 18.226562 -38.207031 16.683594 -37.578125 15.226562 -36.96875 C 10.902344 -35.242188 9.796875 -36.664062 10.210938 -38.796875 C 11.199219 -43.777344 9.457031 -42.59375 16.136719 -45.0625 C 16.835938 -45.320312 17.617188 -45.59375 18.414062 -45.785156 C 18.496094 -45.804688 18.675781 -45.765625 18.816406 -45.882812 C 19.972656 -46.335938 21.253906 -46.644531 22.359375 -47.675781 Z M 19.277344 -46.417969 L 19.238281 -46.578125 L 19.597656 -46.835938 C 19.617188 -46.757812 19.699219 -46.777344 19.71875 -46.695312 Z M 21.238281 -47.40625 C 21.136719 -47.125 20.9375 -46.90625 20.558594 -47.070312 C 20.71875 -47.109375 20.9375 -47.246094 21.238281 -47.40625 Z M 21.238281 -47.40625 "/></g></g><g style="fill:rgb(100%,56.858826%,30.198669%);fill-opacity:1;"><g transform="translate(148.396478, 91.818754)"><path style="stroke:none;" d="M -8.796875 -46.285156 C -7.839844 -46.179688 -7.121094 -46.015625 -6.765625 -45.253906 C -6.511719 -44.890625 -5.972656 -44.769531 -5.535156 -44.707031 C -4.933594 -44.683594 -4.214844 -44.859375 -3.558594 -44.933594 C -2.65625 -45.066406 -1.679688 -45.21875 -0.78125 -45.015625 C -0.503906 -44.914062 -0.105469 -45.011719 0.234375 -45.007812 C 7.410156 -46.835938 2.714844 -30.628906 2.433594 -27.597656 C 1.863281 -22.292969 1.707031 -17.007812 1.851562 -11.878906 C 2.015625 -9.464844 2.242188 -7.148438 2.566406 -4.773438 C 2.890625 -2.734375 3.898438 -1.03125 4.882812 0.589844 C 5.140625 0.953125 5.558594 1.273438 5.957031 1.515625 C 6.550781 1.878906 7.371094 1.425781 7.855469 0.628906 L 8.800781 -0.363281 C 9.644531 -1.074219 10.289062 -1.90625 10.695312 -3.023438 C 10.898438 -3.578125 11.179688 -4.15625 11.480469 -4.652344 C 11.945312 -5.527344 12.171875 -6.34375 12.136719 -7.183594 C 12.125 -8.28125 12.273438 -9.417969 12.417969 -10.550781 C 12.523438 -11.171875 12.605469 -11.867188 12.472656 -12.429688 C 12.257812 -13.308594 12.203125 -14.226562 12.210938 -15.242188 L 12.382812 -17.316406 L 12.667969 -21.363281 C 12.671875 -21.703125 12.753906 -22.0625 12.734375 -22.480469 C 12.746094 -23.839844 12.65625 -25.253906 12.882812 -26.75 C 13.480469 -29.519531 13.835938 -32.230469 14.195312 -34.941406 C 14.257812 -35.71875 14.503906 -36.457031 14.667969 -37.171875 C 16.847656 -41.089844 14.410156 -49.722656 19.546875 -51.226562 C 20.6875 -51.757812 21.808594 -52.03125 22.890625 -52.800781 C 23.8125 -53.53125 24.753906 -54.183594 25.597656 -54.898438 L 27.726562 -56.9375 C 28.226562 -57.3125 28.429688 -57.871094 28.472656 -58.390625 C 28.464844 -60.164062 28.234375 -61.804688 27.46875 -63.226562 C 27.328125 -63.445312 27.191406 -63.664062 26.972656 -63.867188 C 26.230469 -63.09375 25.527344 -62.839844 24.75 -62.5625 C 21.390625 -61.410156 18.03125 -60.253906 14.691406 -59.019531 L 7.429688 -56.152344 C 5.730469 -55.484375 3.96875 -54.71875 2.347656 -53.734375 C 0.863281 -52.863281 -0.539062 -52.015625 -1.980469 -51.328125 C -3.480469 -50.539062 -4.882812 -49.691406 -6.324219 -48.660156 C -7.1875 -48.027344 -7.949219 -47.335938 -8.796875 -46.285156 Z M -8.796875 -46.285156 "/></g></g><g style="fill:rgb(100%,56.858826%,30.198669%);fill-opacity:1;"><g transform="translate(176.84949, 84.902781)"><path style="stroke:none;" d="M -4.417969 -13.996094 C -4.277344 -13.773438 -4.300781 -13.515625 -4.164062 -13.292969 C -3.484375 -10.496094 -2.402344 -7.796875 -0.699219 -5.671875 C 1.296875 -3.023438 3.738281 -1.332031 6.882812 -0.234375 C 8.097656 0.234375 9.492188 0.402344 10.871094 0.152344 C 11.433594 0.015625 12.03125 0.0390625 12.609375 -0.015625 C 13.386719 0.046875 14.1875 -0.148438 14.949219 -0.839844 C 15.390625 -1.117188 15.851562 -1.3125 16.269531 -1.667969 C 18.234375 -2.652344 19.71875 -4.199219 20.746094 -5.890625 C 21.917969 -7.699219 22.785156 -9.347656 23.8125 -11.035156 C 23.957031 -11.496094 24.320312 -12.089844 24.300781 -12.511719 C 24.871094 -14.34375 25.703125 -16.152344 25.675781 -18.007812 C 25.824219 -19.484375 26.234375 -20.9375 26.140625 -22.355469 C 26.195312 -24.566406 26.472656 -26.921875 26.105469 -29.117188 C 25.757812 -30.894531 25.953125 -32.890625 25.746094 -34.785156 C 25.53125 -35.664062 25.398438 -36.5625 25.183594 -37.441406 C 25.285156 -37.722656 25.089844 -38.183594 25.191406 -38.460938 C 25.558594 -40.074219 25.613281 -41.949219 25.363281 -43.667969 C 24.917969 -45.84375 24.316406 -47.984375 23.210938 -49.746094 C 22.164062 -51.609375 21.136719 -53.390625 19.667969 -54.558594 C 18.417969 -55.523438 17.226562 -56.25 15.933594 -57.035156 C 15.140625 -57.519531 14.023438 -57.585938 12.804688 -57.375 C 10.1875 -56.652344 7.503906 -55.496094 5.554688 -53.074219 C 4.851562 -52.140625 4.1875 -51.386719 3.460938 -50.535156 C 3.320312 -50.074219 2.980469 -49.738281 2.359375 -49.84375 C 1.382812 -49.6875 0.441406 -49.375 -0.222656 -48.28125 C -1.03125 -46.730469 -1.738281 -45.121094 -2.03125 -43.527344 L -3.015625 -39.222656 C -3.339844 -38.46875 -3.488281 -37.332031 -3.613281 -36.453125 L -5.125 -24.914062 C -5.546875 -21.085938 -5.59375 -17.433594 -4.417969 -13.996094 Z M 0.902344 -25.191406 C 2.578125 -25.261719 3.878906 -25.492188 5.152344 -25.125 C 5.710938 -24.921875 6.308594 -25.238281 6.949219 -25.390625 C 7.347656 -25.488281 7.769531 -25.84375 7.652344 -26.324219 C 7.925781 -28.339844 8.398438 -30.230469 8.730469 -32.34375 C 8.671875 -32.582031 8.714844 -32.761719 8.914062 -32.980469 C 9.140625 -34.136719 9.308594 -35.191406 9.375 -36.308594 C 9.503906 -37.527344 10.027344 -38.5 10.355469 -39.59375 C 10.902344 -41.167969 11.292969 -42.703125 11.839844 -44.273438 C 12.042969 -44.832031 12.367188 -45.246094 12.667969 -45.40625 C 13.128906 -45.941406 13.667969 -46.15625 14.089844 -46.511719 C 15.132812 -47.105469 16.089844 -47 16.902344 -46.433594 C 17.996094 -45.769531 18.546875 -44.886719 18.78125 -43.589844 C 19.359375 -40.515625 19.773438 -37.058594 20.011719 -33.984375 C 20.28125 -29.054688 19.871094 -24.128906 18.640625 -19.429688 C 17.554688 -15.1875 15.515625 -11.390625 13.140625 -7.933594 C 12.453125 -6.921875 11.433594 -6.25 10.511719 -5.519531 C 10.109375 -5.082031 9.429688 -5.085938 8.871094 -5.289062 C 7.480469 -5.796875 6.808594 -6.820312 6.21875 -8.199219 C 5.394531 -10.199219 4.410156 -12.160156 3.304688 -14.261719 C 2.914062 -15.523438 2.222656 -16.625 1.652344 -17.925781 C 1.441406 -18.804688 1.484375 -19.660156 1.332031 -20.640625 C 1.199219 -21.539062 1.027344 -22.597656 1.09375 -23.714844 C 0.996094 -24.113281 0.878906 -24.59375 0.902344 -25.191406 Z M 0.902344 -25.191406 "/></g></g><g style="fill:rgb(100%,56.858826%,30.198669%);fill-opacity:1;"><g transform="translate(214.254, 75.810999)"><path style="stroke:none;" d="M 21.320312 -47.425781 C 22.042969 -48.277344 23.121094 -48.371094 24.039062 -48.761719 C 24.742188 -49.019531 25.460938 -49.191406 26.042969 -49.585938 C 27.144531 -50.277344 28.183594 -50.53125 29.320312 -50.722656 C 29.320312 -50.722656 29.417969 -50.664062 29.4375 -50.582031 C 29.28125 -50.542969 29.058594 -50.40625 28.898438 -50.367188 C 28.996094 -49.96875 29.011719 -49.546875 29.492188 -49.664062 C 29.273438 -49.867188 29.214844 -50.105469 29.597656 -50.28125 L 31.058594 -50.890625 L 29.492188 -49.664062 C 30.410156 -49.71875 31.035156 -50.292969 31.617188 -51.027344 C 31.878906 -51.34375 32.21875 -51.683594 32.796875 -51.738281 C 33.636719 -51.773438 33.757812 -51.972656 33.703125 -52.890625 L 32.984375 -52.714844 L 34.351562 -54.0625 C 34.074219 -54.503906 33.972656 -54.5625 34.175781 -55.121094 C 34.359375 -55.757812 34.304688 -56.335938 33.867188 -56.738281 C 33.550781 -57 33.335938 -57.539062 32.757812 -57.484375 C 32.597656 -57.445312 32.476562 -57.585938 32.359375 -57.726562 L 31.742188 -58.167969 C 31.542969 -58.289062 30.582031 -57.71875 30.5625 -57.457031 C 30.761719 -57.335938 30.878906 -57.199219 30.996094 -57.058594 C 30.734375 -56.398438 30.292969 -56.125 29.734375 -55.988281 C 28.375 -55.65625 27.117188 -55.265625 25.777344 -54.855469 C 24.757812 -54.523438 23.71875 -54.269531 22.679688 -54.019531 C 22.359375 -53.941406 22 -54.023438 21.660156 -54.027344 C 21.121094 -53.808594 20.539062 -53.414062 20.140625 -53.316406 C 18.800781 -52.90625 17.421875 -52.316406 16.0625 -52.328125 C 15.464844 -52.351562 14.785156 -52.015625 14.144531 -51.859375 L 6.25 -49.515625 C 6.089844 -49.480469 5.75 -49.480469 5.652344 -49.542969 C 5.53125 -49.683594 5.632812 -49.960938 5.636719 -50.300781 C 5.152344 -49.84375 4.917969 -50.125 4.636719 -50.226562 C 4.257812 -50.386719 3.820312 -50.449219 3.417969 -50.015625 L 3.554688 -49.457031 C 3.75 -48.65625 3.628906 -48.457031 2.75 -48.242188 C 1.710938 -47.992188 0.730469 -47.835938 -0.246094 -47.683594 C -0.648438 -47.585938 -1.164062 -47.628906 -1.84375 -47.636719 C -1.484375 -47.890625 -1.363281 -48.089844 -1.203125 -48.128906 L 1.15625 -48.871094 C 1.558594 -48.96875 2.035156 -49.085938 2.417969 -49.261719 C 2.4375 -49.523438 2.398438 -49.683594 2.378906 -49.761719 L -2.8125 -48.839844 C -3.613281 -48.644531 -4.210938 -48.667969 -4.746094 -49.128906 C -4.765625 -49.210938 -4.847656 -49.191406 -4.925781 -49.171875 C -5.304688 -48.996094 -5.667969 -48.738281 -5.550781 -48.257812 C -5.417969 -47.019531 -5.667969 -45.605469 -4.996094 -44.582031 C -4.875 -44.441406 -4.839844 -44.28125 -4.898438 -44.183594 C -4.902344 -43.503906 -4.464844 -43.101562 -4.128906 -42.761719 L -3.535156 -42.058594 C -3.179688 -41.636719 -2.824219 -41.21875 -2.40625 -40.894531 C -2.089844 -40.632812 -1.652344 -40.230469 -1.234375 -40.25 C 3.613281 -39.820312 1.882812 -37.535156 0.902344 -31.457031 C 0.882812 -31.199219 0.78125 -30.917969 0.597656 -30.621094 C 0.292969 -29.785156 -0.183594 -29.667969 -0.800781 -30.113281 C -1.640625 -29.738281 -2.421875 -29.464844 -3.28125 -29.167969 C -4.519531 -28.699219 -4.601562 -28.679688 -5.253906 -29.621094 C -5.410156 -29.921875 -5.707031 -30.105469 -5.945312 -30.382812 L -6.269531 -29.96875 C -6.289062 -29.707031 -6.390625 -29.429688 -6.492188 -29.152344 C -6.800781 -27.636719 -6.960938 -27.597656 -8.136719 -28.242188 L -8.292969 -28.207031 C -8.335938 -28.027344 -8.515625 -27.726562 -8.539062 -27.46875 C -8.566406 -26.191406 -8.355469 -24.972656 -7.683594 -23.953125 C -7.527344 -23.652344 -7.308594 -23.449219 -7.449219 -22.992188 C -7.472656 -22.734375 -7.394531 -22.414062 -7.074219 -22.492188 C -6.65625 -22.507812 -6.519531 -22.289062 -6.300781 -22.085938 C -6.160156 -21.867188 -5.761719 -21.964844 -5.5625 -21.84375 C -5.382812 -21.800781 -5.34375 -21.640625 -5.324219 -21.5625 C -4.910156 -20.902344 -4.578125 -20.21875 -4.242188 -19.539062 C -3.515625 -17.601562 -3.261719 -10.636719 -3.078125 -8.480469 C -3 -7.820312 -3.023438 -7.222656 -3.050781 -6.625 C -3.03125 -6.203125 -3.195312 -5.828125 -3.175781 -5.40625 L -3.0625 -1.796875 C -3.085938 -1.199219 -3.046875 -0.699219 -3.171875 -0.160156 C -3.457031 1.09375 -3.066406 2.015625 -2.03125 2.441406 C -1.652344 2.601562 -1.132812 2.644531 -0.695312 2.707031 L 0.976562 2.980469 L 2.554688 3.1875 C 3.292969 3.09375 3.871094 3.039062 4.613281 2.605469 C 5.351562 2.167969 6.113281 1.816406 6.953125 1.441406 C 6.976562 1.183594 6.996094 0.921875 6.9375 0.683594 C 6.890625 -0.914062 6.839844 -2.507812 6.871094 -4.125 C 6.835938 -4.964844 6.941406 -5.921875 7.066406 -6.796875 C 7.542969 -9.367188 8.25 -16.90625 8.726562 -19.476562 C 9.851562 -26.691406 8.765625 -25.578125 14.65625 -29.550781 L 17.222656 -31.191406 L 17.824219 -31.507812 C 18.804688 -32 19.902344 -32.351562 20.765625 -32.984375 C 22.148438 -33.910156 23.488281 -34.660156 24.929688 -35.351562 C 25.210938 -35.585938 25.53125 -35.664062 25.671875 -36.125 C 25.835938 -36.5 26.175781 -36.839844 26.4375 -37.15625 C 27.121094 -37.828125 28.082031 -38.402344 28.070312 -39.5 C 28.050781 -39.578125 28.109375 -39.679688 28.171875 -39.777344 C 28.53125 -40.035156 28.375 -40.335938 28.296875 -40.65625 C 26.660156 -40.765625 22.386719 -39.894531 20.683594 -38.890625 L 24.359375 -39.78125 C 22.441406 -38.976562 20.484375 -38.671875 18.582031 -37.785156 C 18.421875 -37.746094 18.304688 -37.886719 17.964844 -37.890625 L 19.746094 -38.574219 C 18.226562 -38.207031 16.683594 -37.578125 15.226562 -36.96875 C 10.902344 -35.242188 9.796875 -36.664062 10.210938 -38.796875 C 11.199219 -43.777344 9.457031 -42.59375 16.136719 -45.0625 C 16.835938 -45.320312 17.617188 -45.59375 18.414062 -45.785156 C 18.496094 -45.804688 18.675781 -45.765625 18.816406 -45.882812 C 19.972656 -46.335938 21.253906 -46.644531 22.359375 -47.675781 Z M 19.277344 -46.417969 L 19.238281 -46.578125 L 19.597656 -46.835938 C 19.617188 -46.757812 19.699219 -46.777344 19.71875 -46.695312 Z M 21.238281 -47.40625 C 21.136719 -47.125 20.9375 -46.90625 20.558594 -47.070312 C 20.71875 -47.109375 20.9375 -47.246094 21.238281 -47.40625 Z M 21.238281 -47.40625 "/></g></g><g style="fill:rgb(100%,56.858826%,30.198669%);fill-opacity:1;"><g transform="translate(250.939197, 66.894057)"><path style="stroke:none;" d="M 21.320312 -47.425781 C 22.042969 -48.277344 23.121094 -48.371094 24.039062 -48.761719 C 24.742188 -49.019531 25.460938 -49.191406 26.042969 -49.585938 C 27.144531 -50.277344 28.183594 -50.53125 29.320312 -50.722656 C 29.320312 -50.722656 29.417969 -50.664062 29.4375 -50.582031 C 29.28125 -50.542969 29.058594 -50.40625 28.898438 -50.367188 C 28.996094 -49.96875 29.011719 -49.546875 29.492188 -49.664062 C 29.273438 -49.867188 29.214844 -50.105469 29.597656 -50.28125 L 31.058594 -50.890625 L 29.492188 -49.664062 C 30.410156 -49.71875 31.035156 -50.292969 31.617188 -51.027344 C 31.878906 -51.34375 32.21875 -51.683594 32.796875 -51.738281 C 33.636719 -51.773438 33.757812 -51.972656 33.703125 -52.890625 L 32.984375 -52.714844 L 34.351562 -54.0625 C 34.074219 -54.503906 33.972656 -54.5625 34.175781 -55.121094 C 34.359375 -55.757812 34.304688 -56.335938 33.867188 -56.738281 C 33.550781 -57 33.335938 -57.539062 32.757812 -57.484375 C 32.597656 -57.445312 32.476562 -57.585938 32.359375 -57.726562 L 31.742188 -58.167969 C 31.542969 -58.289062 30.582031 -57.71875 30.5625 -57.457031 C 30.761719 -57.335938 30.878906 -57.199219 30.996094 -57.058594 C 30.734375 -56.398438 30.292969 -56.125 29.734375 -55.988281 C 28.375 -55.65625 27.117188 -55.265625 25.777344 -54.855469 C 24.757812 -54.523438 23.71875 -54.269531 22.679688 -54.019531 C 22.359375 -53.941406 22 -54.023438 21.660156 -54.027344 C 21.121094 -53.808594 20.539062 -53.414062 20.140625 -53.316406 C 18.800781 -52.90625 17.421875 -52.316406 16.0625 -52.328125 C 15.464844 -52.351562 14.785156 -52.015625 14.144531 -51.859375 L 6.25 -49.515625 C 6.089844 -49.480469 5.75 -49.480469 5.652344 -49.542969 C 5.53125 -49.683594 5.632812 -49.960938 5.636719 -50.300781 C 5.152344 -49.84375 4.917969 -50.125 4.636719 -50.226562 C 4.257812 -50.386719 3.820312 -50.449219 3.417969 -50.015625 L 3.554688 -49.457031 C 3.75 -48.65625 3.628906 -48.457031 2.75 -48.242188 C 1.710938 -47.992188 0.730469 -47.835938 -0.246094 -47.683594 C -0.648438 -47.585938 -1.164062 -47.628906 -1.84375 -47.636719 C -1.484375 -47.890625 -1.363281 -48.089844 -1.203125 -48.128906 L 1.15625 -48.871094 C 1.558594 -48.96875 2.035156 -49.085938 2.417969 -49.261719 C 2.4375 -49.523438 2.398438 -49.683594 2.378906 -49.761719 L -2.8125 -48.839844 C -3.613281 -48.644531 -4.210938 -48.667969 -4.746094 -49.128906 C -4.765625 -49.210938 -4.847656 -49.191406 -4.925781 -49.171875 C -5.304688 -48.996094 -5.667969 -48.738281 -5.550781 -48.257812 C -5.417969 -47.019531 -5.667969 -45.605469 -4.996094 -44.582031 C -4.875 -44.441406 -4.839844 -44.28125 -4.898438 -44.183594 C -4.902344 -43.503906 -4.464844 -43.101562 -4.128906 -42.761719 L -3.535156 -42.058594 C -3.179688 -41.636719 -2.824219 -41.21875 -2.40625 -40.894531 C -2.089844 -40.632812 -1.652344 -40.230469 -1.234375 -40.25 C 3.613281 -39.820312 1.882812 -37.535156 0.902344 -31.457031 C 0.882812 -31.199219 0.78125 -30.917969 0.597656 -30.621094 C 0.292969 -29.785156 -0.183594 -29.667969 -0.800781 -30.113281 C -1.640625 -29.738281 -2.421875 -29.464844 -3.28125 -29.167969 C -4.519531 -28.699219 -4.601562 -28.679688 -5.253906 -29.621094 C -5.410156 -29.921875 -5.707031 -30.105469 -5.945312 -30.382812 L -6.269531 -29.96875 C -6.289062 -29.707031 -6.390625 -29.429688 -6.492188 -29.152344 C -6.800781 -27.636719 -6.960938 -27.597656 -8.136719 -28.242188 L -8.292969 -28.207031 C -8.335938 -28.027344 -8.515625 -27.726562 -8.539062 -27.46875 C -8.566406 -26.191406 -8.355469 -24.972656 -7.683594 -23.953125 C -7.527344 -23.652344 -7.308594 -23.449219 -7.449219 -22.992188 C -7.472656 -22.734375 -7.394531 -22.414062 -7.074219 -22.492188 C -6.65625 -22.507812 -6.519531 -22.289062 -6.300781 -22.085938 C -6.160156 -21.867188 -5.761719 -21.964844 -5.5625 -21.84375 C -5.382812 -21.800781 -5.34375 -21.640625 -5.324219 -21.5625 C -4.910156 -20.902344 -4.578125 -20.21875 -4.242188 -19.539062 C -3.515625 -17.601562 -3.261719 -10.636719 -3.078125 -8.480469 C -3 -7.820312 -3.023438 -7.222656 -3.050781 -6.625 C -3.03125 -6.203125 -3.195312 -5.828125 -3.175781 -5.40625 L -3.0625 -1.796875 C -3.085938 -1.199219 -3.046875 -0.699219 -3.171875 -0.160156 C -3.457031 1.09375 -3.066406 2.015625 -2.03125 2.441406 C -1.652344 2.601562 -1.132812 2.644531 -0.695312 2.707031 L 0.976562 2.980469 L 2.554688 3.1875 C 3.292969 3.09375 3.871094 3.039062 4.613281 2.605469 C 5.351562 2.167969 6.113281 1.816406 6.953125 1.441406 C 6.976562 1.183594 6.996094 0.921875 6.9375 0.683594 C 6.890625 -0.914062 6.839844 -2.507812 6.871094 -4.125 C 6.835938 -4.964844 6.941406 -5.921875 7.066406 -6.796875 C 7.542969 -9.367188 8.25 -16.90625 8.726562 -19.476562 C 9.851562 -26.691406 8.765625 -25.578125 14.65625 -29.550781 L 17.222656 -31.191406 L 17.824219 -31.507812 C 18.804688 -32 19.902344 -32.351562 20.765625 -32.984375 C 22.148438 -33.910156 23.488281 -34.660156 24.929688 -35.351562 C 25.210938 -35.585938 25.53125 -35.664062 25.671875 -36.125 C 25.835938 -36.5 26.175781 -36.839844 26.4375 -37.15625 C 27.121094 -37.828125 28.082031 -38.402344 28.070312 -39.5 C 28.050781 -39.578125 28.109375 -39.679688 28.171875 -39.777344 C 28.53125 -40.035156 28.375 -40.335938 28.296875 -40.65625 C 26.660156 -40.765625 22.386719 -39.894531 20.683594 -38.890625 L 24.359375 -39.78125 C 22.441406 -38.976562 20.484375 -38.671875 18.582031 -37.785156 C 18.421875 -37.746094 18.304688 -37.886719 17.964844 -37.890625 L 19.746094 -38.574219 C 18.226562 -38.207031 16.683594 -37.578125 15.226562 -36.96875 C 10.902344 -35.242188 9.796875 -36.664062 10.210938 -38.796875 C 11.199219 -43.777344 9.457031 -42.59375 16.136719 -45.0625 C 16.835938 -45.320312 17.617188 -45.59375 18.414062 -45.785156 C 18.496094 -45.804688 18.675781 -45.765625 18.816406 -45.882812 C 19.972656 -46.335938 21.253906 -46.644531 22.359375 -47.675781 Z M 19.277344 -46.417969 L 19.238281 -46.578125 L 19.597656 -46.835938 C 19.617188 -46.757812 19.699219 -46.777344 19.71875 -46.695312 Z M 21.238281 -47.40625 C 21.136719 -47.125 20.9375 -46.90625 20.558594 -47.070312 C 20.71875 -47.109375 20.9375 -47.246094 21.238281 -47.40625 Z M 21.238281 -47.40625 "/></g></g><g style="fill:rgb(100%,87.059021%,34.899902%);fill-opacity:1;"><g transform="translate(106.486115, 125.777396)"><path style="stroke:none;" d="M 1.359375 -2.648438 L 1.371094 -2.652344 L 3.363281 -0.816406 L 5.074219 -1.234375 L 2.769531 -3.058594 C 3.5 -3.4375 3.953125 -4.273438 3.703125 -5.308594 C 3.417969 -6.472656 2.339844 -7.058594 1.347656 -6.820312 L 0.402344 -6.589844 L 0.0703125 -6.507812 L -0.949219 -6.261719 L 0.539062 -0.132812 L 1.894531 -0.460938 Z M 1.382812 -5.699219 C 1.777344 -5.796875 2.277344 -5.554688 2.414062 -4.996094 C 2.554688 -4.410156 2.21875 -3.984375 1.824219 -3.890625 L 1.101562 -3.714844 L 0.660156 -5.527344 Z M 1.382812 -5.699219 "/></g></g><g style="fill:rgb(100%,87.059021%,34.899902%);fill-opacity:1;"><g transform="translate(113.885184, 123.97893)"><path style="stroke:none;" d="M 4.527344 -4.355469 C 4.753906 -3.410156 4.109375 -2.335938 3.164062 -2.105469 C 2.21875 -1.875 1.152344 -2.53125 0.921875 -3.480469 C 0.691406 -4.425781 1.339844 -5.488281 2.285156 -5.71875 C 3.230469 -5.949219 4.296875 -5.300781 4.527344 -4.355469 Z M 5.878906 -4.675781 C 5.46875 -6.371094 3.652344 -7.472656 1.957031 -7.0625 C 0.265625 -6.652344 -0.839844 -4.835938 -0.429688 -3.140625 C -0.015625 -1.445312 1.796875 -0.339844 3.492188 -0.753906 C 5.1875 -1.164062 6.292969 -2.980469 5.878906 -4.675781 Z M 5.878906 -4.675781 "/></g></g><g style="fill:rgb(100%,87.059021%,34.899902%);fill-opacity:1;"><g transform="translate(123.257496, 121.700836)"><path style="stroke:none;" d="M 4.460938 -3.289062 C 4.339844 -2.6875 3.816406 -2.167969 3.183594 -2.015625 C 2.195312 -1.773438 1.195312 -2.429688 0.941406 -3.472656 C 0.6875 -4.511719 1.273438 -5.558594 2.265625 -5.800781 C 2.886719 -5.953125 3.582031 -5.757812 3.96875 -5.269531 L 5.472656 -5.636719 C 4.753906 -6.789062 3.355469 -7.402344 1.957031 -7.0625 C 0.21875 -6.640625 -0.851562 -4.878906 -0.429688 -3.140625 C -0.0078125 -1.402344 1.753906 -0.332031 3.492188 -0.753906 C 4.890625 -1.09375 5.859375 -2.292969 5.964844 -3.65625 Z M 4.460938 -3.289062 "/></g></g><g style="fill:rgb(100%,87.059021%,34.899902%);fill-opacity:1;"><g transform="translate(132.386533, 119.481873)"><path style="stroke:none;" d="M 1.226562 -3.199219 L 3.832031 -0.929688 L 5.652344 -1.375 L 2.464844 -3.84375 L 4.070312 -7.480469 L 2.339844 -7.058594 L 1.070312 -3.847656 L 0.402344 -6.589844 L -0.949219 -6.261719 L 0.539062 -0.132812 L 1.894531 -0.460938 Z M 1.226562 -3.199219 "/></g></g><g style="fill:rgb(100%,87.059021%,34.899902%);fill-opacity:1;"><g transform="translate(140.380283, 117.538861)"><path style="stroke:none;" d="M 3.792969 -2.21875 L 1.59375 -1.6875 L 1.292969 -2.921875 L 3.402344 -3.433594 L 3.105469 -4.660156 L 0.996094 -4.144531 L 0.699219 -5.363281 L 2.898438 -5.898438 L 2.601562 -7.125 L -0.949219 -6.261719 L 0.539062 -0.132812 L 4.09375 -0.996094 Z M 3.792969 -2.21875 "/></g></g><g style="fill:rgb(100%,87.059021%,34.899902%);fill-opacity:1;"><g transform="translate(147.445971, 115.821429)"><path style="stroke:none;" d="M 1.953125 -5.667969 L 3.703125 -6.09375 L 3.40625 -7.320312 L -1.445312 -6.140625 L -1.148438 -4.914062 L 0.601562 -5.339844 L 1.792969 -0.4375 L 3.144531 -0.765625 Z M 1.953125 -5.667969 "/></g></g><g style="fill:rgb(100%,87.059021%,34.899902%);fill-opacity:1;"><g transform="translate(154.818007, 114.029534)"><path style="stroke:none;" d="M 2.6875 -1.664062 C 2.019531 -1.503906 1.363281 -1.695312 1.148438 -2.417969 L -0.21875 -2.085938 C 0.152344 -0.589844 1.550781 -0.222656 2.902344 -0.550781 C 4.152344 -0.855469 5.3125 -1.703125 4.964844 -3.144531 C 4.394531 -5.480469 1.042969 -3.832031 0.777344 -4.925781 C 0.667969 -5.382812 1.15625 -5.691406 1.535156 -5.785156 C 2.210938 -5.949219 2.628906 -5.832031 2.859375 -5.210938 L 4.164062 -5.527344 C 3.78125 -6.914062 2.507812 -7.195312 1.246094 -6.890625 C 0.128906 -6.617188 -0.898438 -5.738281 -0.589844 -4.476562 C -0.0429688 -2.214844 3.3125 -3.839844 3.601562 -2.652344 C 3.738281 -2.101562 3.113281 -1.769531 2.6875 -1.664062 Z M 2.6875 -1.664062 "/></g></g><g style="fill:rgb(100%,87.059021%,34.899902%);fill-opacity:1;"><g transform="translate(162.928892, 112.05805)"><path style="stroke:none;" d=""/></g></g><g style="fill:rgb(100%,87.059021%,34.899902%);fill-opacity:1;"><g transform="translate(167.615878, 110.918801)"><path style="stroke:none;" d="M 8.183594 -1.988281 L 5.503906 -7.828125 L 3.898438 -7.4375 L 3.675781 -2.832031 L 1.347656 -6.820312 L -0.253906 -6.429688 L 0.046875 -0.0117188 L 1.53125 -0.371094 L 1.226562 -4.773438 L 3.453125 -0.839844 L 4.777344 -1.160156 L 4.949219 -5.679688 L 6.695312 -1.628906 Z M 8.183594 -1.988281 "/></g></g><g style="fill:rgb(100%,87.059021%,34.899902%);fill-opacity:1;"><g transform="translate(178.276663, 108.327522)"><path style="stroke:none;" d="M 3.304688 -3.285156 L 1.753906 -2.910156 L 2 -5.277344 Z M 6.164062 -1.5 L 2.1875 -7.023438 L 1.042969 -6.746094 L 0.046875 -0.0117188 L 1.496094 -0.363281 L 1.636719 -1.707031 L 3.972656 -2.273438 L 4.714844 -1.144531 Z M 6.164062 -1.5 "/></g></g><g style="fill:rgb(100%,87.059021%,34.899902%);fill-opacity:1;"><g transform="translate(186.919146, 106.226824)"><path style="stroke:none;" d="M 1.574219 -1.699219 L 0.691406 -5.332031 L 1.09375 -5.429688 C 2.140625 -5.683594 3.035156 -5.0625 3.285156 -4.042969 C 3.53125 -3.023438 3.015625 -2.050781 1.976562 -1.796875 Z M -0.949219 -6.261719 L 0.539062 -0.132812 L 2.363281 -0.574219 C 4.101562 -0.996094 5.082031 -2.648438 4.664062 -4.378906 C 4.242188 -6.109375 2.601562 -7.125 0.871094 -6.703125 Z M -0.949219 -6.261719 "/></g></g><g style="fill:rgb(100%,87.059021%,34.899902%);fill-opacity:1;"><g transform="translate(195.07508, 104.24439)"><path style="stroke:none;" d="M 3.792969 -2.21875 L 1.59375 -1.6875 L 1.292969 -2.921875 L 3.402344 -3.433594 L 3.105469 -4.660156 L 0.996094 -4.144531 L 0.699219 -5.363281 L 2.898438 -5.898438 L 2.601562 -7.125 L -0.949219 -6.261719 L 0.539062 -0.132812 L 4.09375 -0.996094 Z M 3.792969 -2.21875 "/></g></g><g style="fill:rgb(100%,87.059021%,34.899902%);fill-opacity:1;"><g transform="translate(202.140768, 102.526959)"><path style="stroke:none;" d=""/></g></g><g style="fill:rgb(100%,87.059021%,34.899902%);fill-opacity:1;"><g transform="translate(206.827754, 101.387709)"><path style="stroke:none;" d="M 3.792969 -2.21875 L 1.59375 -1.6875 L 1.292969 -2.921875 L 3.402344 -3.433594 L 3.105469 -4.660156 L 0.996094 -4.144531 L 0.699219 -5.363281 L 2.898438 -5.898438 L 2.601562 -7.125 L -0.949219 -6.261719 L 0.539062 -0.132812 L 4.09375 -0.996094 Z M 3.792969 -2.21875 "/></g></g><g style="fill:rgb(100%,87.059021%,34.899902%);fill-opacity:1;"><g transform="translate(213.893442, 99.670278)"><path style="stroke:none;" d="M 3.304688 -3.285156 L 1.753906 -2.910156 L 2 -5.277344 Z M 6.164062 -1.5 L 2.1875 -7.023438 L 1.042969 -6.746094 L 0.046875 -0.0117188 L 1.496094 -0.363281 L 1.636719 -1.707031 L 3.972656 -2.273438 L 4.714844 -1.144531 Z M 6.164062 -1.5 "/></g></g><g style="fill:rgb(100%,87.059021%,34.899902%);fill-opacity:1;"><g transform="translate(222.535925, 97.56958)"><path style="stroke:none;" d="M 2.6875 -1.664062 C 2.019531 -1.503906 1.363281 -1.695312 1.148438 -2.417969 L -0.21875 -2.085938 C 0.152344 -0.589844 1.550781 -0.222656 2.902344 -0.550781 C 4.152344 -0.855469 5.3125 -1.703125 4.964844 -3.144531 C 4.394531 -5.480469 1.042969 -3.832031 0.777344 -4.925781 C 0.667969 -5.382812 1.15625 -5.691406 1.535156 -5.785156 C 2.210938 -5.949219 2.628906 -5.832031 2.859375 -5.210938 L 4.164062 -5.527344 C 3.78125 -6.914062 2.507812 -7.195312 1.246094 -6.890625 C 0.128906 -6.617188 -0.898438 -5.738281 -0.589844 -4.476562 C -0.0429688 -2.214844 3.3125 -3.839844 3.601562 -2.652344 C 3.738281 -2.101562 3.113281 -1.769531 2.6875 -1.664062 Z M 2.6875 -1.664062 "/></g></g><g style="fill:rgb(100%,87.059021%,34.899902%);fill-opacity:1;"><g transform="translate(230.646809, 95.598096)"><path style="stroke:none;" d="M 2.335938 -0.566406 L 3.6875 -0.894531 L 2.972656 -3.824219 L 4.457031 -7.574219 L 2.84375 -7.183594 L 2.035156 -4.742188 L 0.195312 -6.539062 L -1.417969 -6.144531 L 1.621094 -3.496094 Z M 2.335938 -0.566406 "/></g></g></g></svg>