<?xml version="1.0" encoding="UTF-8"?><svg xmlns="http://www.w3.org/2000/svg" xmlns:xlink="http://www.w3.org/1999/xlink" width="375pt" zoomAndPan="magnify" viewBox="0 0 375 374.999991" height="374.999991pt" preserveAspectRatio="xMidYMid meet" version="1.2"><defs><g/></defs><g xml:id="surface1" id="surface1"><rect x="0" width="375" y="0" height="374.999991" style="fill:rgb(100%,100%,100%);fill-opacity:1;stroke:none;"/><rect x="0" width="375" y="0" height="374.999991" style="fill:rgb(100%,100%,100%);fill-opacity:1;stroke:none;"/><rect x="0" width="375" y="0" height="374.999991" style="fill:rgb(0%,0%,0%);fill-opacity:1;stroke:none;"/><g style="fill:rgb(100%,56.858826%,30.198669%);fill-opacity:1;"><g transform="translate(83.3814, 223.400874)"><path style="stroke:none;" d="M 16.816406 -9.710938 C 11.417969 -8.476562 7.253906 -4.382812 7.742188 -12.820312 C 7.757812 -14.671875 7.988281 -16.574219 8.015625 -18.355469 L 8.042969 -30.914062 C 8.023438 -33.222656 8.097656 -41.789062 7.875 -43.96875 C 7.84375 -44.730469 7.738281 -45.476562 7.433594 -46.09375 C 6.898438 -47.351562 5.996094 -47.902344 4.578125 -47.710938 C 3.777344 -47.515625 2.726562 -44.871094 1.925781 -44.679688 C 1.269531 -44.519531 1.160156 -44.339844 0.902344 -43.503906 L 0.425781 -40.386719 C 0.0390625 -36.285156 -0.03125 -28.335938 -0.421875 -24.234375 C -0.601562 -22.113281 -0.96875 -15.398438 -1.074219 -13.292969 C -1.257812 -10.554688 -1.21875 -7.867188 -1.34375 -5.21875 C -1.34375 0.171875 -1.671875 0.40625 -2.898438 2.015625 C -3.464844 2.226562 -3.558594 2.789062 -3.398438 3.136719 C -3.164062 3.464844 -3.183594 4.007812 -3.152344 4.464844 C -2.972656 4.882812 -2.9375 5.335938 -2.851562 5.699219 C -2.65625 6.191406 -2.332031 6.574219 -2.152344 6.992188 C -1.917969 7.320312 -1.757812 7.667969 -1.414062 7.8125 C -0.886719 8.070312 -0.21875 8.292969 0.289062 8.480469 C 0.378906 8.535156 0.453125 8.515625 0.523438 8.5 C 1.273438 8.085938 2.019531 7.671875 2.675781 7.207031 C 3.386719 6.648438 4.007812 6.035156 4.703125 5.402344 C 5.6875 4.394531 3.9375 5.742188 5.015625 4.789062 C 6.183594 3.582031 7.425781 2.355469 8.363281 0.816406 C 8.457031 0.5625 8.710938 0.347656 8.894531 0.148438 C 9.332031 -0.265625 9.933594 -0.644531 10.371094 -1.058594 C 11.667969 -2.066406 12.90625 -2.984375 14.183594 -4.0625 C 15.390625 -5.128906 16.59375 -5.882812 17.941406 -6.363281 C 18.449219 -6.488281 18.941406 -6.683594 19.523438 -7.132812 C 20.308594 -7.710938 21.074219 -8.050781 21.890625 -8.171875 C 21.964844 -8.1875 22.164062 -8.3125 22.144531 -8.386719 C 22.496094 -9.164062 22.988281 -9.363281 23.496094 -9.484375 C 23.640625 -9.519531 23.695312 -9.609375 23.898438 -9.738281 C 23.71875 -9.847656 23.589844 -10.046875 23.445312 -10.011719 C 22.558594 -10.179688 21.652344 -10.421875 20.582031 -10.394531 C 19.382812 -10.257812 18.128906 -10.027344 16.816406 -9.710938 Z M 16.816406 -9.710938 "/></g></g><g style="fill:rgb(100%,56.858826%,30.198669%);fill-opacity:1;"><g transform="translate(107.014948, 217.656351)"><path style="stroke:none;" d="M -1.011719 -39.34375 C -0.957031 -39.433594 -2.527344 -37.972656 -2.527344 -37.972656 C -2.367188 -37.9375 -2.214844 -36.355469 -2.066406 -36.390625 C 1.671875 -36.222656 3.007812 -38.316406 2.886719 -33.128906 C 2.855469 -31.65625 2.914062 -32.054688 2.902344 -30.511719 C 2.863281 -29.734375 3.113281 -29.023438 3.144531 -28.261719 C 3.15625 -27.570312 3.371094 -27.007812 3.238281 -26.28125 C 2.976562 -25.140625 3.042969 -24.230469 3 -23.144531 C 3.011719 -21.835938 3.039062 -20.457031 2.429688 -18.84375 C 2.261719 -18.574219 2.261719 -18.265625 2.152344 -18.082031 C 1.902344 -16.253906 1.875 -14.78125 1.957031 -13.183594 C 1.875 -11.933594 1.8125 -10.605469 1.675781 -9.265625 L 1.382812 -8.578125 C 1.015625 -8.179688 0.703125 -7.875 0.304688 -7.621094 C -0.570312 -7.101562 -1.390625 -6.671875 -2.246094 -6.078125 C -3.105469 -5.484375 -4.015625 -4.800781 -4.839844 -4.0625 C -5.039062 -3.9375 -5.257812 -3.574219 -5.332031 -3.246094 L -6.128906 -1.128906 C -6.539062 0.355469 -6.394531 0.9375 -5.273438 1.128906 C -4.855469 1.257812 -4.527344 1.332031 -4.019531 1.207031 C -2.453125 0.671875 -0.929688 0.300781 0.472656 -0.269531 C 2.238281 -0.929688 4.113281 -1.769531 5.933594 -2.519531 L 10.429688 -4.304688 C 11.339844 -4.683594 12.011719 -4.769531 12.480469 -4.421875 C 12.789062 -4.109375 13.242188 -4.453125 13.773438 -4.8125 C 14.15625 -5.136719 14.320312 -5.40625 14.085938 -5.734375 C 13.816406 -6.207031 13.894531 -6.84375 14.300781 -7.710938 C 14.390625 -7.964844 14.359375 -8.417969 14.433594 -8.746094 C 14.476562 -9.527344 14.699219 -10.503906 14.320312 -11.105469 C 14.214844 -11.234375 14.269531 -11.632812 14.347656 -11.960938 C 13.652344 -11.636719 13.730469 -12.273438 13.605469 -12.78125 C 12.863281 -12.675781 11.882812 -12.59375 10.953125 -12.289062 C 7.074219 -10.5 8.492188 -16.082031 8.78125 -18.695312 L 9.195312 -23.957031 C 9.257812 -24.972656 9.117188 -25.863281 9.125 -26.789062 L 9.199219 -35.355469 C 9.246094 -37.0625 9.375 -37.167969 9.367188 -38.785156 C 9.746094 -41.34375 13.398438 -41.84375 15.386719 -43.175781 C 15.40625 -43.71875 15.417969 -45.261719 15.019531 -45.320312 C 14.601562 -45.449219 14.476562 -45.957031 14.445312 -46.410156 C 14.363281 -48.011719 13.425781 -48.707031 12.042969 -48.679688 C 10.9375 -48.792969 9.574219 -48.386719 8.28125 -47.6875 C 6.167969 -46.558594 4.183594 -45.535156 2.175781 -44.277344 C 1.15625 -43.722656 -0.0078125 -43.4375 -0.996094 -42.121094 C -0.945312 -41.59375 -1.113281 -41.011719 -1.660156 -40.417969 C -1.769531 -40.238281 -1.789062 -40 -1.972656 -39.804688 C -2.140625 -39.222656 -0.71875 -40.03125 -1.011719 -39.34375 Z M -2.285156 -0.214844 C -2.046875 -0.8125 -1.628906 -0.992188 -1.28125 -1.152344 C 0.136719 -1.652344 1.8125 -2.367188 3.449219 -2.917969 C 4.070312 -3.222656 4.632812 -3.4375 5.273438 -3.976562 C 5.453125 -4.175781 5.601562 -4.210938 5.800781 -4.335938 C 6.710938 -4.710938 7.566406 -4.996094 8.386719 -5.425781 C 8.804688 -5.605469 9.132812 -5.839844 9.53125 -5.472656 L 7.617188 -4.777344 C 7.945312 -4.703125 8.347656 -4.957031 8.710938 -5.042969 C 9.128906 -5.222656 9.546875 -5.402344 9.929688 -5.417969 C 10.292969 -5.503906 10.671875 -5.519531 11.183594 -5.644531 C 10.523438 -4.867188 10.199219 -4.945312 9.597656 -4.566406 C 9.03125 -4.351562 8.503906 -4.300781 7.976562 -3.941406 C 7.335938 -3.402344 6.628906 -3.152344 6.027344 -2.773438 C 5.335938 -2.453125 4.550781 -2.183594 3.84375 -1.933594 L 0.09375 -0.5625 C -0.632812 -0.386719 -1.304688 -0.300781 -2.03125 -0.121094 Z M 9.550781 -41.832031 C 9.058594 -41.636719 8.933594 -41.835938 9.0625 -42.253906 C 9.976562 -43.246094 10.535156 -42.84375 11.445312 -42.910156 Z M 0.8125 -38.476562 C 0.871094 -38.566406 0.871094 -38.566406 0.851562 -38.640625 C 0.980469 -38.75 1.125 -38.785156 1.269531 -38.820312 C 1.398438 -38.925781 1.472656 -38.945312 1.617188 -38.980469 L 1.652344 -38.835938 Z M 0.8125 -38.476562 "/></g></g><g style="fill:rgb(100%,56.858826%,30.198669%);fill-opacity:1;"><g transform="translate(132.248309, 211.522968)"><path style="stroke:none;" d="M 19.394531 -43.148438 C 20.054688 -43.925781 21.035156 -44.007812 21.875 -44.367188 C 22.511719 -44.597656 23.164062 -44.757812 23.691406 -45.117188 C 24.695312 -45.746094 25.640625 -45.976562 26.675781 -46.152344 C 26.675781 -46.152344 26.765625 -46.09375 26.785156 -46.023438 C 26.640625 -45.988281 26.4375 -45.863281 26.292969 -45.828125 C 26.382812 -45.460938 26.398438 -45.082031 26.835938 -45.1875 C 26.636719 -45.371094 26.582031 -45.589844 26.929688 -45.75 L 28.257812 -46.304688 L 26.835938 -45.1875 C 27.667969 -45.238281 28.234375 -45.757812 28.765625 -46.425781 C 29.003906 -46.714844 29.316406 -47.023438 29.839844 -47.074219 C 30.605469 -47.105469 30.714844 -47.285156 30.664062 -48.121094 L 30.011719 -47.960938 L 31.253906 -49.1875 C 31 -49.589844 30.910156 -49.644531 31.097656 -50.152344 C 31.261719 -50.730469 31.210938 -51.257812 30.816406 -51.625 C 30.527344 -51.863281 30.328125 -52.351562 29.804688 -52.300781 C 29.65625 -52.265625 29.550781 -52.394531 29.441406 -52.523438 L 28.882812 -52.925781 C 28.699219 -53.035156 27.824219 -52.515625 27.804688 -52.277344 C 27.988281 -52.167969 28.09375 -52.039062 28.203125 -51.914062 C 27.964844 -51.316406 27.5625 -51.0625 27.054688 -50.941406 C 25.816406 -50.640625 24.671875 -50.285156 23.453125 -49.910156 C 22.523438 -49.609375 21.578125 -49.378906 20.632812 -49.148438 C 20.34375 -49.078125 20.015625 -49.152344 19.707031 -49.15625 C 19.214844 -48.957031 18.6875 -48.597656 18.324219 -48.511719 C 17.105469 -48.136719 15.847656 -47.601562 14.617188 -47.609375 C 14.070312 -47.628906 13.453125 -47.324219 12.871094 -47.183594 L 5.6875 -45.054688 C 5.539062 -45.019531 5.230469 -45.019531 5.140625 -45.074219 C 5.035156 -45.203125 5.125 -45.457031 5.128906 -45.765625 C 4.6875 -45.351562 4.472656 -45.605469 4.21875 -45.699219 C 3.875 -45.84375 3.476562 -45.902344 3.109375 -45.503906 L 3.234375 -44.996094 C 3.410156 -44.269531 3.300781 -44.089844 2.5 -43.894531 C 1.554688 -43.664062 0.664062 -43.523438 -0.226562 -43.386719 C -0.589844 -43.296875 -1.058594 -43.335938 -1.675781 -43.339844 C -1.347656 -43.574219 -1.238281 -43.753906 -1.09375 -43.789062 L 1.054688 -44.464844 C 1.417969 -44.554688 1.851562 -44.660156 2.199219 -44.820312 C 2.21875 -45.058594 2.183594 -45.203125 2.164062 -45.277344 L -2.558594 -44.4375 C -3.285156 -44.257812 -3.832031 -44.28125 -4.320312 -44.703125 C -4.335938 -44.773438 -4.410156 -44.757812 -4.480469 -44.738281 C -4.828125 -44.578125 -5.15625 -44.34375 -5.050781 -43.90625 C -4.929688 -42.78125 -5.15625 -41.492188 -4.546875 -40.5625 C -4.4375 -40.4375 -4.402344 -40.289062 -4.457031 -40.199219 C -4.460938 -39.582031 -4.0625 -39.21875 -3.757812 -38.90625 L -3.21875 -38.269531 C -2.894531 -37.882812 -2.570312 -37.5 -2.1875 -37.207031 C -1.898438 -36.96875 -1.503906 -36.605469 -1.121094 -36.621094 C 3.285156 -36.230469 1.710938 -34.152344 0.824219 -28.621094 C 0.800781 -28.386719 0.710938 -28.132812 0.546875 -27.859375 C 0.269531 -27.101562 -0.167969 -26.992188 -0.730469 -27.398438 C -1.492188 -27.058594 -2.203125 -26.808594 -2.984375 -26.539062 C -4.113281 -26.113281 -4.1875 -26.09375 -4.78125 -26.953125 C -4.921875 -27.222656 -5.195312 -27.390625 -5.410156 -27.644531 L -5.703125 -27.265625 C -5.722656 -27.03125 -5.816406 -26.777344 -5.90625 -26.523438 C -6.1875 -25.144531 -6.335938 -25.109375 -7.402344 -25.699219 L -7.546875 -25.664062 C -7.585938 -25.5 -7.75 -25.226562 -7.769531 -24.992188 C -7.796875 -23.832031 -7.601562 -22.722656 -6.992188 -21.792969 C -6.847656 -21.519531 -6.648438 -21.335938 -6.78125 -20.917969 C -6.800781 -20.683594 -6.726562 -20.394531 -6.4375 -20.464844 C -6.054688 -20.480469 -5.929688 -20.277344 -5.730469 -20.097656 C -5.605469 -19.894531 -5.242188 -19.984375 -5.0625 -19.875 C -4.898438 -19.835938 -4.863281 -19.691406 -4.84375 -19.617188 C -4.46875 -19.015625 -4.164062 -18.398438 -3.859375 -17.777344 C -3.199219 -16.011719 -2.96875 -9.675781 -2.800781 -7.714844 C -2.730469 -7.117188 -2.753906 -6.570312 -2.773438 -6.027344 C -2.757812 -5.644531 -2.90625 -5.300781 -2.890625 -4.921875 L -2.785156 -1.632812 C -2.804688 -1.089844 -2.773438 -0.636719 -2.886719 -0.144531 C -3.148438 0.996094 -2.789062 1.832031 -1.847656 2.21875 C -1.503906 2.367188 -1.03125 2.40625 -0.632812 2.464844 L 0.890625 2.710938 L 2.324219 2.902344 C 2.996094 2.816406 3.523438 2.765625 4.195312 2.367188 C 4.871094 1.972656 5.5625 1.652344 6.328125 1.3125 C 6.347656 1.074219 6.367188 0.839844 6.3125 0.621094 C 6.269531 -0.832031 6.222656 -2.28125 6.25 -3.753906 C 6.21875 -4.515625 6.316406 -5.386719 6.429688 -6.183594 C 6.863281 -8.523438 7.507812 -15.378906 7.941406 -17.71875 C 8.960938 -24.285156 7.976562 -23.273438 13.335938 -26.886719 L 15.667969 -28.378906 L 16.214844 -28.664062 C 17.109375 -29.113281 18.109375 -29.433594 18.894531 -30.007812 C 20.152344 -30.855469 21.371094 -31.535156 22.683594 -32.164062 C 22.9375 -32.378906 23.230469 -32.449219 23.359375 -32.867188 C 23.507812 -33.210938 23.816406 -33.515625 24.054688 -33.804688 C 24.675781 -34.417969 25.550781 -34.941406 25.539062 -35.9375 C 25.523438 -36.011719 25.578125 -36.101562 25.632812 -36.191406 C 25.960938 -36.425781 25.816406 -36.699219 25.746094 -36.988281 C 24.257812 -37.089844 20.367188 -36.296875 18.820312 -35.382812 L 22.164062 -36.195312 C 20.417969 -35.464844 18.636719 -35.183594 16.90625 -34.378906 C 16.761719 -34.34375 16.652344 -34.472656 16.34375 -34.472656 L 17.964844 -35.097656 C 16.582031 -34.761719 15.179688 -34.191406 13.851562 -33.636719 C 9.921875 -32.066406 8.914062 -33.359375 9.289062 -35.300781 C 10.191406 -39.832031 8.601562 -38.753906 14.679688 -41 C 15.316406 -41.234375 16.027344 -41.480469 16.753906 -41.660156 C 16.828125 -41.675781 16.992188 -41.640625 17.117188 -41.746094 C 18.171875 -42.15625 19.335938 -42.441406 20.34375 -43.378906 Z M 17.539062 -42.234375 L 17.503906 -42.378906 L 17.832031 -42.613281 C 17.847656 -42.542969 17.921875 -42.558594 17.941406 -42.488281 Z M 19.324219 -43.128906 C 19.230469 -42.878906 19.046875 -42.679688 18.703125 -42.828125 C 18.851562 -42.863281 19.050781 -42.988281 19.324219 -43.128906 Z M 19.324219 -43.128906 "/></g></g><g style="fill:rgb(100%,56.858826%,30.198669%);fill-opacity:1;"><g transform="translate(165.626157, 203.409933)"><path style="stroke:none;" d="M -8.003906 -42.109375 C -7.132812 -42.015625 -6.480469 -41.867188 -6.15625 -41.171875 C -5.921875 -40.84375 -5.433594 -40.734375 -5.035156 -40.675781 C -4.488281 -40.65625 -3.835938 -40.8125 -3.234375 -40.882812 C -2.417969 -41.003906 -1.527344 -41.144531 -0.710938 -40.957031 C -0.460938 -40.863281 -0.09375 -40.953125 0.214844 -40.949219 C 6.742188 -42.613281 2.46875 -27.867188 2.214844 -25.109375 C 1.695312 -20.285156 1.554688 -15.472656 1.6875 -10.808594 C 1.835938 -8.609375 2.039062 -6.503906 2.332031 -4.339844 C 2.628906 -2.488281 3.546875 -0.9375 4.445312 0.539062 C 4.675781 0.867188 5.058594 1.160156 5.417969 1.378906 C 5.960938 1.707031 6.707031 1.296875 7.148438 0.574219 L 8.007812 -0.328125 C 8.773438 -0.976562 9.359375 -1.734375 9.730469 -2.75 C 9.914062 -3.257812 10.171875 -3.78125 10.445312 -4.234375 C 10.871094 -5.03125 11.074219 -5.773438 11.042969 -6.535156 C 11.03125 -7.535156 11.164062 -8.566406 11.300781 -9.601562 C 11.394531 -10.164062 11.46875 -10.796875 11.347656 -11.308594 C 11.152344 -12.105469 11.101562 -12.941406 11.109375 -13.867188 L 11.265625 -15.753906 L 11.527344 -19.4375 C 11.527344 -19.746094 11.601562 -20.074219 11.585938 -20.453125 C 11.597656 -21.6875 11.511719 -22.976562 11.722656 -24.339844 C 12.265625 -26.859375 12.589844 -29.324219 12.914062 -31.792969 C 12.972656 -32.5 13.195312 -33.167969 13.34375 -33.820312 C 15.328125 -37.382812 13.109375 -45.242188 17.785156 -46.609375 C 18.824219 -47.089844 19.839844 -47.339844 20.828125 -48.039062 C 21.664062 -48.707031 22.523438 -49.300781 23.289062 -49.949219 L 25.226562 -51.804688 C 25.679688 -52.148438 25.867188 -52.65625 25.90625 -53.125 C 25.898438 -54.742188 25.691406 -56.230469 24.992188 -57.523438 C 24.863281 -57.726562 24.738281 -57.925781 24.539062 -58.109375 C 23.863281 -57.40625 23.226562 -57.171875 22.519531 -56.925781 C 19.460938 -55.871094 16.40625 -54.820312 13.367188 -53.699219 L 6.761719 -51.089844 C 5.214844 -50.484375 3.609375 -49.785156 2.136719 -48.886719 C 0.785156 -48.097656 -0.488281 -47.328125 -1.800781 -46.699219 C -3.167969 -45.984375 -4.441406 -45.210938 -5.753906 -44.273438 C -6.539062 -43.699219 -7.234375 -43.070312 -8.003906 -42.109375 Z M -8.003906 -42.109375 "/></g></g><g style="fill:rgb(100%,56.858826%,30.198669%);fill-opacity:1;"><g transform="translate(191.513992, 197.117468)"><path style="stroke:none;" d="M -4.019531 -12.734375 C -3.894531 -12.53125 -3.914062 -12.296875 -3.789062 -12.097656 C -3.167969 -9.550781 -2.1875 -7.09375 -0.636719 -5.160156 C 1.179688 -2.75 3.402344 -1.210938 6.265625 -0.214844 C 7.367188 0.210938 8.636719 0.363281 9.890625 0.136719 C 10.402344 0.0117188 10.945312 0.0351562 11.472656 -0.015625 C 12.179688 0.0429688 12.90625 -0.132812 13.601562 -0.765625 C 14.003906 -1.015625 14.421875 -1.195312 14.804688 -1.519531 C 16.589844 -2.414062 17.941406 -3.820312 18.878906 -5.359375 C 19.941406 -7.003906 20.730469 -8.503906 21.667969 -10.042969 C 21.796875 -10.457031 22.128906 -11 22.113281 -11.382812 C 22.628906 -13.050781 23.386719 -14.695312 23.359375 -16.382812 C 23.496094 -17.726562 23.867188 -19.050781 23.785156 -20.339844 C 23.835938 -22.351562 24.085938 -24.492188 23.753906 -26.492188 C 23.4375 -28.109375 23.613281 -29.925781 23.421875 -31.648438 C 23.230469 -32.449219 23.109375 -33.265625 22.914062 -34.066406 C 23.003906 -34.320312 22.828125 -34.738281 22.917969 -34.992188 C 23.253906 -36.460938 23.304688 -38.167969 23.078125 -39.730469 C 22.671875 -41.710938 22.121094 -43.65625 21.117188 -45.261719 C 20.164062 -46.957031 19.230469 -48.578125 17.894531 -49.636719 C 16.757812 -50.515625 15.671875 -51.179688 14.496094 -51.894531 C 13.773438 -52.332031 12.757812 -52.394531 11.648438 -52.203125 C 9.269531 -51.546875 6.828125 -50.492188 5.054688 -48.289062 C 4.414062 -47.441406 3.808594 -46.753906 3.152344 -45.976562 C 3.019531 -45.5625 2.710938 -45.253906 2.148438 -45.347656 C 1.257812 -45.210938 0.402344 -44.925781 -0.203125 -43.929688 C -0.9375 -42.519531 -1.582031 -41.054688 -1.847656 -39.601562 L -2.742188 -35.6875 C -3.039062 -35 -3.171875 -33.964844 -3.285156 -33.167969 L -4.664062 -22.667969 C -5.046875 -19.183594 -5.089844 -15.863281 -4.019531 -12.734375 Z M 0.820312 -22.921875 C 2.347656 -22.984375 3.527344 -23.195312 4.6875 -22.859375 C 5.195312 -22.675781 5.742188 -22.960938 6.324219 -23.101562 C 6.6875 -23.191406 7.070312 -23.515625 6.964844 -23.953125 C 7.210938 -25.785156 7.640625 -27.503906 7.945312 -29.425781 C 7.890625 -29.644531 7.929688 -29.808594 8.109375 -30.007812 C 8.316406 -31.058594 8.46875 -32.019531 8.53125 -33.035156 C 8.644531 -34.140625 9.125 -35.027344 9.421875 -36.023438 C 9.921875 -37.457031 10.273438 -38.851562 10.773438 -40.28125 C 10.957031 -40.789062 11.25 -41.167969 11.523438 -41.3125 C 11.945312 -41.800781 12.4375 -41.996094 12.820312 -42.320312 C 13.765625 -42.859375 14.636719 -42.761719 15.378906 -42.25 C 16.375 -41.644531 16.875 -40.839844 17.085938 -39.660156 C 17.613281 -36.859375 17.992188 -33.71875 18.210938 -30.921875 C 18.453125 -26.4375 18.078125 -21.957031 16.960938 -17.679688 C 15.972656 -13.820312 14.117188 -10.363281 11.957031 -7.21875 C 11.332031 -6.296875 10.402344 -5.6875 9.5625 -5.019531 C 9.195312 -4.625 8.578125 -4.628906 8.074219 -4.8125 C 6.804688 -5.273438 6.195312 -6.203125 5.65625 -7.460938 C 4.90625 -9.28125 4.011719 -11.066406 3.007812 -12.976562 C 2.652344 -14.125 2.023438 -15.125 1.503906 -16.308594 C 1.308594 -17.109375 1.351562 -17.890625 1.210938 -18.78125 C 1.089844 -19.597656 0.933594 -20.558594 0.996094 -21.578125 C 0.90625 -21.941406 0.800781 -22.375 0.820312 -22.921875 Z M 0.820312 -22.921875 "/></g></g><g style="fill:rgb(100%,56.858826%,30.198669%);fill-opacity:1;"><g transform="translate(225.546305, 188.845355)"><path style="stroke:none;" d="M 19.394531 -43.148438 C 20.054688 -43.925781 21.035156 -44.007812 21.875 -44.367188 C 22.511719 -44.597656 23.164062 -44.757812 23.691406 -45.117188 C 24.695312 -45.746094 25.640625 -45.976562 26.675781 -46.152344 C 26.675781 -46.152344 26.765625 -46.09375 26.785156 -46.023438 C 26.640625 -45.988281 26.4375 -45.863281 26.292969 -45.828125 C 26.382812 -45.460938 26.398438 -45.082031 26.835938 -45.1875 C 26.636719 -45.371094 26.582031 -45.589844 26.929688 -45.75 L 28.257812 -46.304688 L 26.835938 -45.1875 C 27.667969 -45.238281 28.234375 -45.757812 28.765625 -46.425781 C 29.003906 -46.714844 29.316406 -47.023438 29.839844 -47.074219 C 30.605469 -47.105469 30.714844 -47.285156 30.664062 -48.121094 L 30.011719 -47.960938 L 31.253906 -49.1875 C 31 -49.589844 30.910156 -49.644531 31.097656 -50.152344 C 31.261719 -50.730469 31.210938 -51.257812 30.816406 -51.625 C 30.527344 -51.863281 30.328125 -52.351562 29.804688 -52.300781 C 29.65625 -52.265625 29.550781 -52.394531 29.441406 -52.523438 L 28.882812 -52.925781 C 28.699219 -53.035156 27.824219 -52.515625 27.804688 -52.277344 C 27.988281 -52.167969 28.09375 -52.039062 28.203125 -51.914062 C 27.964844 -51.316406 27.5625 -51.0625 27.054688 -50.941406 C 25.816406 -50.640625 24.671875 -50.285156 23.453125 -49.910156 C 22.523438 -49.609375 21.578125 -49.378906 20.632812 -49.148438 C 20.34375 -49.078125 20.015625 -49.152344 19.707031 -49.15625 C 19.214844 -48.957031 18.6875 -48.597656 18.324219 -48.511719 C 17.105469 -48.136719 15.847656 -47.601562 14.617188 -47.609375 C 14.070312 -47.628906 13.453125 -47.324219 12.871094 -47.183594 L 5.6875 -45.054688 C 5.539062 -45.019531 5.230469 -45.019531 5.140625 -45.074219 C 5.035156 -45.203125 5.125 -45.457031 5.128906 -45.765625 C 4.6875 -45.351562 4.472656 -45.605469 4.21875 -45.699219 C 3.875 -45.84375 3.476562 -45.902344 3.109375 -45.503906 L 3.234375 -44.996094 C 3.410156 -44.269531 3.300781 -44.089844 2.5 -43.894531 C 1.554688 -43.664062 0.664062 -43.523438 -0.226562 -43.386719 C -0.589844 -43.296875 -1.058594 -43.335938 -1.675781 -43.339844 C -1.347656 -43.574219 -1.238281 -43.753906 -1.09375 -43.789062 L 1.054688 -44.464844 C 1.417969 -44.554688 1.851562 -44.660156 2.199219 -44.820312 C 2.21875 -45.058594 2.183594 -45.203125 2.164062 -45.277344 L -2.558594 -44.4375 C -3.285156 -44.257812 -3.832031 -44.28125 -4.320312 -44.703125 C -4.335938 -44.773438 -4.410156 -44.757812 -4.480469 -44.738281 C -4.828125 -44.578125 -5.15625 -44.34375 -5.050781 -43.90625 C -4.929688 -42.78125 -5.15625 -41.492188 -4.546875 -40.5625 C -4.4375 -40.4375 -4.402344 -40.289062 -4.457031 -40.199219 C -4.460938 -39.582031 -4.0625 -39.21875 -3.757812 -38.90625 L -3.21875 -38.269531 C -2.894531 -37.882812 -2.570312 -37.5 -2.1875 -37.207031 C -1.898438 -36.96875 -1.503906 -36.605469 -1.121094 -36.621094 C 3.285156 -36.230469 1.710938 -34.152344 0.824219 -28.621094 C 0.800781 -28.386719 0.710938 -28.132812 0.546875 -27.859375 C 0.269531 -27.101562 -0.167969 -26.992188 -0.730469 -27.398438 C -1.492188 -27.058594 -2.203125 -26.808594 -2.984375 -26.539062 C -4.113281 -26.113281 -4.1875 -26.09375 -4.78125 -26.953125 C -4.921875 -27.222656 -5.195312 -27.390625 -5.410156 -27.644531 L -5.703125 -27.265625 C -5.722656 -27.03125 -5.816406 -26.777344 -5.90625 -26.523438 C -6.1875 -25.144531 -6.335938 -25.109375 -7.402344 -25.699219 L -7.546875 -25.664062 C -7.585938 -25.5 -7.75 -25.226562 -7.769531 -24.992188 C -7.796875 -23.832031 -7.601562 -22.722656 -6.992188 -21.792969 C -6.847656 -21.519531 -6.648438 -21.335938 -6.78125 -20.917969 C -6.800781 -20.683594 -6.726562 -20.394531 -6.4375 -20.464844 C -6.054688 -20.480469 -5.929688 -20.277344 -5.730469 -20.097656 C -5.605469 -19.894531 -5.242188 -19.984375 -5.0625 -19.875 C -4.898438 -19.835938 -4.863281 -19.691406 -4.84375 -19.617188 C -4.46875 -19.015625 -4.164062 -18.398438 -3.859375 -17.777344 C -3.199219 -16.011719 -2.96875 -9.675781 -2.800781 -7.714844 C -2.730469 -7.117188 -2.753906 -6.570312 -2.773438 -6.027344 C -2.757812 -5.644531 -2.90625 -5.300781 -2.890625 -4.921875 L -2.785156 -1.632812 C -2.804688 -1.089844 -2.773438 -0.636719 -2.886719 -0.144531 C -3.148438 0.996094 -2.789062 1.832031 -1.847656 2.21875 C -1.503906 2.367188 -1.03125 2.40625 -0.632812 2.464844 L 0.890625 2.710938 L 2.324219 2.902344 C 2.996094 2.816406 3.523438 2.765625 4.195312 2.367188 C 4.871094 1.972656 5.5625 1.652344 6.328125 1.3125 C 6.347656 1.074219 6.367188 0.839844 6.3125 0.621094 C 6.269531 -0.832031 6.222656 -2.28125 6.25 -3.753906 C 6.21875 -4.515625 6.316406 -5.386719 6.429688 -6.183594 C 6.863281 -8.523438 7.507812 -15.378906 7.941406 -17.71875 C 8.960938 -24.285156 7.976562 -23.273438 13.335938 -26.886719 L 15.667969 -28.378906 L 16.214844 -28.664062 C 17.109375 -29.113281 18.109375 -29.433594 18.894531 -30.007812 C 20.152344 -30.855469 21.371094 -31.535156 22.683594 -32.164062 C 22.9375 -32.378906 23.230469 -32.449219 23.359375 -32.867188 C 23.507812 -33.210938 23.816406 -33.515625 24.054688 -33.804688 C 24.675781 -34.417969 25.550781 -34.941406 25.539062 -35.9375 C 25.523438 -36.011719 25.578125 -36.101562 25.632812 -36.191406 C 25.960938 -36.425781 25.816406 -36.699219 25.746094 -36.988281 C 24.257812 -37.089844 20.367188 -36.296875 18.820312 -35.382812 L 22.164062 -36.195312 C 20.417969 -35.464844 18.636719 -35.183594 16.90625 -34.378906 C 16.761719 -34.34375 16.652344 -34.472656 16.34375 -34.472656 L 17.964844 -35.097656 C 16.582031 -34.761719 15.179688 -34.191406 13.851562 -33.636719 C 9.921875 -32.066406 8.914062 -33.359375 9.289062 -35.300781 C 10.191406 -39.832031 8.601562 -38.753906 14.679688 -41 C 15.316406 -41.234375 16.027344 -41.480469 16.753906 -41.660156 C 16.828125 -41.675781 16.992188 -41.640625 17.117188 -41.746094 C 18.171875 -42.15625 19.335938 -42.441406 20.34375 -43.378906 Z M 17.539062 -42.234375 L 17.503906 -42.378906 L 17.832031 -42.613281 C 17.847656 -42.542969 17.921875 -42.558594 17.941406 -42.488281 Z M 19.324219 -43.128906 C 19.230469 -42.878906 19.046875 -42.679688 18.703125 -42.828125 C 18.851562 -42.863281 19.050781 -42.988281 19.324219 -43.128906 Z M 19.324219 -43.128906 "/></g></g><g style="fill:rgb(100%,56.858826%,30.198669%);fill-opacity:1;"><g transform="translate(258.924153, 180.73232)"><path style="stroke:none;" d="M 19.394531 -43.148438 C 20.054688 -43.925781 21.035156 -44.007812 21.875 -44.367188 C 22.511719 -44.597656 23.164062 -44.757812 23.691406 -45.117188 C 24.695312 -45.746094 25.640625 -45.976562 26.675781 -46.152344 C 26.675781 -46.152344 26.765625 -46.09375 26.785156 -46.023438 C 26.640625 -45.988281 26.4375 -45.863281 26.292969 -45.828125 C 26.382812 -45.460938 26.398438 -45.082031 26.835938 -45.1875 C 26.636719 -45.371094 26.582031 -45.589844 26.929688 -45.75 L 28.257812 -46.304688 L 26.835938 -45.1875 C 27.667969 -45.238281 28.234375 -45.757812 28.765625 -46.425781 C 29.003906 -46.714844 29.316406 -47.023438 29.839844 -47.074219 C 30.605469 -47.105469 30.714844 -47.285156 30.664062 -48.121094 L 30.011719 -47.960938 L 31.253906 -49.1875 C 31 -49.589844 30.910156 -49.644531 31.097656 -50.152344 C 31.261719 -50.730469 31.210938 -51.257812 30.816406 -51.625 C 30.527344 -51.863281 30.328125 -52.351562 29.804688 -52.300781 C 29.65625 -52.265625 29.550781 -52.394531 29.441406 -52.523438 L 28.882812 -52.925781 C 28.699219 -53.035156 27.824219 -52.515625 27.804688 -52.277344 C 27.988281 -52.167969 28.09375 -52.039062 28.203125 -51.914062 C 27.964844 -51.316406 27.5625 -51.0625 27.054688 -50.941406 C 25.816406 -50.640625 24.671875 -50.285156 23.453125 -49.910156 C 22.523438 -49.609375 21.578125 -49.378906 20.632812 -49.148438 C 20.34375 -49.078125 20.015625 -49.152344 19.707031 -49.15625 C 19.214844 -48.957031 18.6875 -48.597656 18.324219 -48.511719 C 17.105469 -48.136719 15.847656 -47.601562 14.617188 -47.609375 C 14.070312 -47.628906 13.453125 -47.324219 12.871094 -47.183594 L 5.6875 -45.054688 C 5.539062 -45.019531 5.230469 -45.019531 5.140625 -45.074219 C 5.035156 -45.203125 5.125 -45.457031 5.128906 -45.765625 C 4.6875 -45.351562 4.472656 -45.605469 4.21875 -45.699219 C 3.875 -45.84375 3.476562 -45.902344 3.109375 -45.503906 L 3.234375 -44.996094 C 3.410156 -44.269531 3.300781 -44.089844 2.5 -43.894531 C 1.554688 -43.664062 0.664062 -43.523438 -0.226562 -43.386719 C -0.589844 -43.296875 -1.058594 -43.335938 -1.675781 -43.339844 C -1.347656 -43.574219 -1.238281 -43.753906 -1.09375 -43.789062 L 1.054688 -44.464844 C 1.417969 -44.554688 1.851562 -44.660156 2.199219 -44.820312 C 2.21875 -45.058594 2.183594 -45.203125 2.164062 -45.277344 L -2.558594 -44.4375 C -3.285156 -44.257812 -3.832031 -44.28125 -4.320312 -44.703125 C -4.335938 -44.773438 -4.410156 -44.757812 -4.480469 -44.738281 C -4.828125 -44.578125 -5.15625 -44.34375 -5.050781 -43.90625 C -4.929688 -42.78125 -5.15625 -41.492188 -4.546875 -40.5625 C -4.4375 -40.4375 -4.402344 -40.289062 -4.457031 -40.199219 C -4.460938 -39.582031 -4.0625 -39.21875 -3.757812 -38.90625 L -3.21875 -38.269531 C -2.894531 -37.882812 -2.570312 -37.5 -2.1875 -37.207031 C -1.898438 -36.96875 -1.503906 -36.605469 -1.121094 -36.621094 C 3.285156 -36.230469 1.710938 -34.152344 0.824219 -28.621094 C 0.800781 -28.386719 0.710938 -28.132812 0.546875 -27.859375 C 0.269531 -27.101562 -0.167969 -26.992188 -0.730469 -27.398438 C -1.492188 -27.058594 -2.203125 -26.808594 -2.984375 -26.539062 C -4.113281 -26.113281 -4.1875 -26.09375 -4.78125 -26.953125 C -4.921875 -27.222656 -5.195312 -27.390625 -5.410156 -27.644531 L -5.703125 -27.265625 C -5.722656 -27.03125 -5.816406 -26.777344 -5.90625 -26.523438 C -6.1875 -25.144531 -6.335938 -25.109375 -7.402344 -25.699219 L -7.546875 -25.664062 C -7.585938 -25.5 -7.75 -25.226562 -7.769531 -24.992188 C -7.796875 -23.832031 -7.601562 -22.722656 -6.992188 -21.792969 C -6.847656 -21.519531 -6.648438 -21.335938 -6.78125 -20.917969 C -6.800781 -20.683594 -6.726562 -20.394531 -6.4375 -20.464844 C -6.054688 -20.480469 -5.929688 -20.277344 -5.730469 -20.097656 C -5.605469 -19.894531 -5.242188 -19.984375 -5.0625 -19.875 C -4.898438 -19.835938 -4.863281 -19.691406 -4.84375 -19.617188 C -4.46875 -19.015625 -4.164062 -18.398438 -3.859375 -17.777344 C -3.199219 -16.011719 -2.96875 -9.675781 -2.800781 -7.714844 C -2.730469 -7.117188 -2.753906 -6.570312 -2.773438 -6.027344 C -2.757812 -5.644531 -2.90625 -5.300781 -2.890625 -4.921875 L -2.785156 -1.632812 C -2.804688 -1.089844 -2.773438 -0.636719 -2.886719 -0.144531 C -3.148438 0.996094 -2.789062 1.832031 -1.847656 2.21875 C -1.503906 2.367188 -1.03125 2.40625 -0.632812 2.464844 L 0.890625 2.710938 L 2.324219 2.902344 C 2.996094 2.816406 3.523438 2.765625 4.195312 2.367188 C 4.871094 1.972656 5.5625 1.652344 6.328125 1.3125 C 6.347656 1.074219 6.367188 0.839844 6.3125 0.621094 C 6.269531 -0.832031 6.222656 -2.28125 6.25 -3.753906 C 6.21875 -4.515625 6.316406 -5.386719 6.429688 -6.183594 C 6.863281 -8.523438 7.507812 -15.378906 7.941406 -17.71875 C 8.960938 -24.285156 7.976562 -23.273438 13.335938 -26.886719 L 15.667969 -28.378906 L 16.214844 -28.664062 C 17.109375 -29.113281 18.109375 -29.433594 18.894531 -30.007812 C 20.152344 -30.855469 21.371094 -31.535156 22.683594 -32.164062 C 22.9375 -32.378906 23.230469 -32.449219 23.359375 -32.867188 C 23.507812 -33.210938 23.816406 -33.515625 24.054688 -33.804688 C 24.675781 -34.417969 25.550781 -34.941406 25.539062 -35.9375 C 25.523438 -36.011719 25.578125 -36.101562 25.632812 -36.191406 C 25.960938 -36.425781 25.816406 -36.699219 25.746094 -36.988281 C 24.257812 -37.089844 20.367188 -36.296875 18.820312 -35.382812 L 22.164062 -36.195312 C 20.417969 -35.464844 18.636719 -35.183594 16.90625 -34.378906 C 16.761719 -34.34375 16.652344 -34.472656 16.34375 -34.472656 L 17.964844 -35.097656 C 16.582031 -34.761719 15.179688 -34.191406 13.851562 -33.636719 C 9.921875 -32.066406 8.914062 -33.359375 9.289062 -35.300781 C 10.191406 -39.832031 8.601562 -38.753906 14.679688 -41 C 15.316406 -41.234375 16.027344 -41.480469 16.753906 -41.660156 C 16.828125 -41.675781 16.992188 -41.640625 17.117188 -41.746094 C 18.171875 -42.15625 19.335938 -42.441406 20.34375 -43.378906 Z M 17.539062 -42.234375 L 17.503906 -42.378906 L 17.832031 -42.613281 C 17.847656 -42.542969 17.921875 -42.558594 17.941406 -42.488281 Z M 19.324219 -43.128906 C 19.230469 -42.878906 19.046875 -42.679688 18.703125 -42.828125 C 18.851562 -42.863281 19.050781 -42.988281 19.324219 -43.128906 Z M 19.324219 -43.128906 "/></g></g><g style="fill:rgb(100%,87.059021%,34.899902%);fill-opacity:1;"><g transform="translate(90.846049, 249.826163)"><path style="stroke:none;" d="M 1.953125 -3.800781 L 1.964844 -3.804688 L 4.824219 -1.171875 L 7.277344 -1.769531 L 3.972656 -4.386719 C 5.019531 -4.929688 5.671875 -6.128906 5.308594 -7.617188 C 4.90625 -9.285156 3.359375 -10.128906 1.9375 -9.78125 L 0.578125 -9.453125 L 0.101562 -9.335938 L -1.359375 -8.980469 L 0.777344 -0.1875 L 2.714844 -0.660156 Z M 1.984375 -8.175781 C 2.550781 -8.316406 3.265625 -7.96875 3.460938 -7.167969 C 3.664062 -6.328125 3.183594 -5.71875 2.613281 -5.578125 L 1.582031 -5.328125 L 0.949219 -7.925781 Z M 1.984375 -8.175781 "/></g></g><g style="fill:rgb(100%,87.059021%,34.899902%);fill-opacity:1;"><g transform="translate(101.459343, 247.246428)"><path style="stroke:none;" d="M 6.492188 -6.246094 C 6.820312 -4.890625 5.894531 -3.351562 4.539062 -3.019531 C 3.179688 -2.691406 1.648438 -3.632812 1.320312 -4.988281 C 0.988281 -6.347656 1.917969 -7.875 3.277344 -8.203125 C 4.636719 -8.535156 6.160156 -7.605469 6.492188 -6.246094 Z M 8.433594 -6.707031 C 7.84375 -9.136719 5.238281 -10.722656 2.808594 -10.128906 C 0.378906 -9.539062 -1.207031 -6.9375 -0.617188 -4.503906 C -0.0234375 -2.074219 2.578125 -0.488281 5.007812 -1.082031 C 7.441406 -1.671875 9.023438 -4.273438 8.433594 -6.707031 Z M 8.433594 -6.707031 "/></g></g><g style="fill:rgb(100%,87.059021%,34.899902%);fill-opacity:1;"><g transform="translate(114.903076, 243.978707)"><path style="stroke:none;" d="M 6.398438 -4.71875 C 6.222656 -3.855469 5.472656 -3.109375 4.570312 -2.890625 C 3.148438 -2.542969 1.714844 -3.484375 1.347656 -4.984375 C 0.988281 -6.46875 1.828125 -7.976562 3.25 -8.320312 C 4.140625 -8.539062 5.140625 -8.261719 5.695312 -7.558594 L 7.851562 -8.082031 C 6.820312 -9.738281 4.8125 -10.617188 2.808594 -10.128906 C 0.3125 -9.523438 -1.222656 -7 -0.617188 -4.503906 C -0.0078125 -2.011719 2.515625 -0.472656 5.007812 -1.082031 C 7.011719 -1.566406 8.402344 -3.289062 8.558594 -5.242188 Z M 6.398438 -4.71875 "/></g></g><g style="fill:rgb(100%,87.059021%,34.899902%);fill-opacity:1;"><g transform="translate(127.997854, 240.795806)"><path style="stroke:none;" d="M 1.757812 -4.589844 L 5.496094 -1.335938 L 8.105469 -1.96875 L 3.535156 -5.515625 L 5.839844 -10.730469 L 3.359375 -10.128906 L 1.535156 -5.519531 L 0.578125 -9.453125 L -1.359375 -8.980469 L 0.777344 -0.1875 L 2.714844 -0.660156 Z M 1.757812 -4.589844 "/></g></g><g style="fill:rgb(100%,87.059021%,34.899902%);fill-opacity:1;"><g transform="translate(139.464164, 238.008731)"><path style="stroke:none;" d="M 5.441406 -3.183594 L 2.289062 -2.417969 L 1.855469 -4.1875 L 4.882812 -4.925781 L 4.453125 -6.683594 L 1.429688 -5.949219 L 1.003906 -7.691406 L 4.160156 -8.460938 L 3.734375 -10.21875 L -1.359375 -8.980469 L 0.777344 -0.1875 L 5.871094 -1.425781 Z M 5.441406 -3.183594 "/></g></g><g style="fill:rgb(100%,87.059021%,34.899902%);fill-opacity:1;"><g transform="translate(149.599254, 235.545231)"><path style="stroke:none;" d="M 2.800781 -8.128906 L 5.3125 -8.738281 L 4.882812 -10.496094 L -2.070312 -8.808594 L -1.644531 -7.050781 L 0.863281 -7.660156 L 2.574219 -0.625 L 4.511719 -1.097656 Z M 2.800781 -8.128906 "/></g></g><g style="fill:rgb(100%,87.059021%,34.899902%);fill-opacity:1;"><g transform="translate(160.173774, 232.97492)"><path style="stroke:none;" d="M 3.855469 -2.386719 C 2.898438 -2.15625 1.957031 -2.433594 1.648438 -3.46875 L -0.316406 -2.992188 C 0.21875 -0.847656 2.222656 -0.320312 4.160156 -0.792969 C 5.957031 -1.230469 7.621094 -2.441406 7.121094 -4.511719 C 6.304688 -7.859375 1.496094 -5.5 1.117188 -7.0625 C 0.957031 -7.722656 1.65625 -8.167969 2.199219 -8.296875 C 3.167969 -8.535156 3.773438 -8.367188 4.097656 -7.472656 L 5.972656 -7.929688 C 5.421875 -9.917969 3.597656 -10.320312 1.789062 -9.882812 C 0.183594 -9.492188 -1.289062 -8.230469 -0.847656 -6.421875 C -0.0585938 -3.175781 4.753906 -5.507812 5.167969 -3.804688 C 5.359375 -3.015625 4.464844 -2.535156 3.855469 -2.386719 Z M 3.855469 -2.386719 "/></g></g><g style="fill:rgb(100%,87.059021%,34.899902%);fill-opacity:1;"><g transform="translate(171.808103, 230.147005)"><path style="stroke:none;" d=""/></g></g><g style="fill:rgb(100%,87.059021%,34.899902%);fill-opacity:1;"><g transform="translate(178.531161, 228.512855)"><path style="stroke:none;" d="M 11.738281 -2.851562 L 7.894531 -11.230469 L 5.59375 -10.671875 L 5.269531 -4.0625 L 1.9375 -9.78125 L -0.367188 -9.222656 L 0.0664062 -0.015625 L 2.199219 -0.535156 L 1.757812 -6.847656 L 4.953125 -1.203125 L 6.851562 -1.664062 L 7.097656 -8.148438 L 9.605469 -2.335938 Z M 11.738281 -2.851562 "/></g></g><g style="fill:rgb(100%,87.059021%,34.899902%);fill-opacity:1;"><g transform="translate(193.823091, 224.7959)"><path style="stroke:none;" d="M 4.742188 -4.710938 L 2.519531 -4.171875 L 2.871094 -7.570312 Z M 8.84375 -2.148438 L 3.136719 -10.074219 L 1.496094 -9.675781 L 0.0664062 -0.015625 L 2.144531 -0.523438 L 2.347656 -2.445312 L 5.699219 -3.261719 L 6.761719 -1.644531 Z M 8.84375 -2.148438 "/></g></g><g style="fill:rgb(100%,87.059021%,34.899902%);fill-opacity:1;"><g transform="translate(206.219951, 221.782639)"><path style="stroke:none;" d="M 2.253906 -2.4375 L 0.988281 -7.648438 L 1.570312 -7.789062 C 3.070312 -8.152344 4.355469 -7.261719 4.710938 -5.800781 C 5.066406 -4.339844 4.324219 -2.941406 2.835938 -2.578125 Z M -1.359375 -8.980469 L 0.777344 -0.1875 L 3.386719 -0.824219 C 5.882812 -1.429688 7.292969 -3.800781 6.6875 -6.28125 C 6.085938 -8.761719 3.734375 -10.21875 1.25 -9.613281 Z M -1.359375 -8.980469 "/></g></g><g style="fill:rgb(100%,87.059021%,34.899902%);fill-opacity:1;"><g transform="translate(217.9189, 218.939017)"><path style="stroke:none;" d="M 5.441406 -3.183594 L 2.289062 -2.417969 L 1.855469 -4.1875 L 4.882812 -4.925781 L 4.453125 -6.683594 L 1.429688 -5.949219 L 1.003906 -7.691406 L 4.160156 -8.460938 L 3.734375 -10.21875 L -1.359375 -8.980469 L 0.777344 -0.1875 L 5.871094 -1.425781 Z M 5.441406 -3.183594 "/></g></g><g style="fill:rgb(100%,87.059021%,34.899902%);fill-opacity:1;"><g transform="translate(228.05399, 216.475517)"><path style="stroke:none;" d=""/></g></g><g style="fill:rgb(100%,87.059021%,34.899902%);fill-opacity:1;"><g transform="translate(234.777048, 214.841367)"><path style="stroke:none;" d="M 5.441406 -3.183594 L 2.289062 -2.417969 L 1.855469 -4.1875 L 4.882812 -4.925781 L 4.453125 -6.683594 L 1.429688 -5.949219 L 1.003906 -7.691406 L 4.160156 -8.460938 L 3.734375 -10.21875 L -1.359375 -8.980469 L 0.777344 -0.1875 L 5.871094 -1.425781 Z M 5.441406 -3.183594 "/></g></g><g style="fill:rgb(100%,87.059021%,34.899902%);fill-opacity:1;"><g transform="translate(244.912138, 212.377867)"><path style="stroke:none;" d="M 4.742188 -4.710938 L 2.519531 -4.171875 L 2.871094 -7.570312 Z M 8.84375 -2.148438 L 3.136719 -10.074219 L 1.496094 -9.675781 L 0.0664062 -0.015625 L 2.144531 -0.523438 L 2.347656 -2.445312 L 5.699219 -3.261719 L 6.761719 -1.644531 Z M 8.84375 -2.148438 "/></g></g><g style="fill:rgb(100%,87.059021%,34.899902%);fill-opacity:1;"><g transform="translate(257.308997, 209.364606)"><path style="stroke:none;" d="M 3.855469 -2.386719 C 2.898438 -2.15625 1.957031 -2.433594 1.648438 -3.46875 L -0.316406 -2.992188 C 0.21875 -0.847656 2.222656 -0.320312 4.160156 -0.792969 C 5.957031 -1.230469 7.621094 -2.441406 7.121094 -4.511719 C 6.304688 -7.859375 1.496094 -5.5 1.117188 -7.0625 C 0.957031 -7.722656 1.65625 -8.167969 2.199219 -8.296875 C 3.167969 -8.535156 3.773438 -8.367188 4.097656 -7.472656 L 5.972656 -7.929688 C 5.421875 -9.917969 3.597656 -10.320312 1.789062 -9.882812 C 0.183594 -9.492188 -1.289062 -8.230469 -0.847656 -6.421875 C -0.0585938 -3.175781 4.753906 -5.507812 5.167969 -3.804688 C 5.359375 -3.015625 4.464844 -2.535156 3.855469 -2.386719 Z M 3.855469 -2.386719 "/></g></g><g style="fill:rgb(100%,87.059021%,34.899902%);fill-opacity:1;"><g transform="translate(268.943326, 206.536691)"><path style="stroke:none;" d="M 3.347656 -0.8125 L 5.289062 -1.285156 L 4.265625 -5.488281 L 6.394531 -10.867188 L 4.082031 -10.304688 L 2.917969 -6.804688 L 0.28125 -9.378906 L -2.035156 -8.816406 L 2.328125 -5.015625 Z M 3.347656 -0.8125 "/></g></g></g></svg>